<svg xmlns="http://www.w3.org/2000/svg" width="35.208" height="32.5" viewBox="0 0 35.208 32.5">
  <path id="Icon_ionic-md-heart-empty" data-name="Icon ionic-md-heart-empty" d="M28.9,4.5a10.414,10.414,0,0,0-7.922,3.715A10.414,10.414,0,0,0,13.057,4.5a9.572,9.572,0,0,0-9.682,9.742c0,6.729,5.984,12.128,15.048,20.456L20.979,37l2.556-2.3C32.6,26.37,38.583,20.97,38.583,14.242A9.572,9.572,0,0,0,28.9,4.5ZM22.063,32.37l-.355.33-.728.66-.728-.66-.355-.33A107.577,107.577,0,0,1,9.511,22.045c-2.37-2.937-3.419-5.34-3.419-7.8A7.04,7.04,0,0,1,8.1,9.223a6.888,6.888,0,0,1,4.96-2.014,7.762,7.762,0,0,1,5.848,2.751l2.074,2.463,2.074-2.463A7.734,7.734,0,0,1,28.9,7.208a6.922,6.922,0,0,1,4.968,2.014,7.054,7.054,0,0,1,2.006,5.019c0,2.454-1.058,4.867-3.419,7.8A107.794,107.794,0,0,1,22.063,32.37Z" transform="translate(-3.375 -4.5)" fill="#fff"/>
</svg>
