<svg xmlns="http://www.w3.org/2000/svg" width="32.497" height="32.497" viewBox="0 0 32.497 32.497">
  <path id="Icon_ionic-md-settings" data-name="Icon ionic-md-settings" d="M31.964,21.248a10.162,10.162,0,0,0,.083-1.625c0-.569-.083-1.056-.083-1.625l3.489-2.681a.746.746,0,0,0,.166-1.056L32.3,8.656a.809.809,0,0,0-1-.325L27.143,9.955A12.094,12.094,0,0,0,24.319,8.33l-.582-4.306a.89.89,0,0,0-.831-.65H16.258a.89.89,0,0,0-.831.65L14.762,8.33a14.072,14.072,0,0,0-2.826,1.625L7.782,8.33a.778.778,0,0,0-1,.325L3.461,14.262a.981.981,0,0,0,.166,1.056L7.2,18c0,.569-.083,1.056-.083,1.625S7.2,20.68,7.2,21.248L3.711,23.929a.746.746,0,0,0-.166,1.056l3.324,5.606a.809.809,0,0,0,1,.325l4.155-1.625a12.093,12.093,0,0,0,2.825,1.625l.665,4.306a.805.805,0,0,0,.831.65h6.648a.89.89,0,0,0,.831-.65l.665-4.306a14.063,14.063,0,0,0,2.825-1.625l4.155,1.625a.778.778,0,0,0,1-.325l3.324-5.606a.98.98,0,0,0-.166-1.056ZM19.582,25.31a5.688,5.688,0,1,1,0-11.374,5.688,5.688,0,1,1,0,11.374Z" transform="translate(-3.375 -3.375)" fill="#fff"/>
</svg>
