<svg xmlns="http://www.w3.org/2000/svg" width="22.163" height="22.163" viewBox="0 0 22.163 22.163">
  <g id="Grupo_396" data-name="Grupo 396" transform="translate(-143.912 -158.072)">
    <circle id="Elipse_16" data-name="Elipse 16" cx="11.082" cy="11.082" r="11.082" transform="translate(143.912 158.072)" fill="#240046"/>
    <path id="Icon_awesome-instagram" data-name="Icon awesome-instagram" d="M6.953,5.627A3.567,3.567,0,1,0,10.52,9.193,3.561,3.561,0,0,0,6.953,5.627Zm0,5.885A2.319,2.319,0,1,1,9.272,9.193a2.323,2.323,0,0,1-2.319,2.319ZM11.5,5.481a.832.832,0,1,1-.832-.832A.83.83,0,0,1,11.5,5.481Zm2.362.844A4.117,4.117,0,0,0,12.736,3.41,4.144,4.144,0,0,0,9.821,2.287c-1.148-.065-4.591-.065-5.739,0A4.138,4.138,0,0,0,1.167,3.407,4.13,4.13,0,0,0,.044,6.322c-.065,1.148-.065,4.591,0,5.739a4.117,4.117,0,0,0,1.124,2.915A4.149,4.149,0,0,0,4.082,16.1c1.148.065,4.591.065,5.739,0a4.117,4.117,0,0,0,2.915-1.124,4.144,4.144,0,0,0,1.124-2.915c.065-1.148.065-4.588,0-5.736Zm-1.484,6.969a2.347,2.347,0,0,1-1.322,1.322,15.331,15.331,0,0,1-4.1.279,15.45,15.45,0,0,1-4.1-.279A2.347,2.347,0,0,1,1.53,13.293a15.331,15.331,0,0,1-.279-4.1,15.45,15.45,0,0,1,.279-4.1A2.347,2.347,0,0,1,2.853,3.77a15.331,15.331,0,0,1,4.1-.279,15.45,15.45,0,0,1,4.1.279,2.347,2.347,0,0,1,1.322,1.322,15.331,15.331,0,0,1,.279,4.1A15.322,15.322,0,0,1,12.376,13.293Z" transform="translate(148.042 159.96)" fill="#fff"/>
  </g>
</svg>
