<svg xmlns="http://www.w3.org/2000/svg" width="22.163" height="22.163" viewBox="0 0 22.163 22.163">
  <g id="Grupo_393" data-name="Grupo 393" transform="translate(-223.925 -158.072)">
    <circle id="Elipse_19" data-name="Elipse 19" cx="11.082" cy="11.082" r="11.082" transform="translate(223.925 158.072)" fill="#240046"/>
    <path id="Icon_awesome-linkedin-in" data-name="Icon awesome-linkedin-in" d="M2.754,12.305H.2V4.09H2.754ZM1.477,2.969A1.484,1.484,0,1,1,2.955,1.478,1.49,1.49,0,0,1,1.477,2.969ZM12.3,12.305H9.756v-4c0-.953-.019-2.175-1.326-2.175C7.1,6.131,6.9,7.166,6.9,8.237v4.068H4.352V4.09H6.8V5.211h.036A2.681,2.681,0,0,1,9.248,3.884c2.582,0,3.056,1.7,3.056,3.908v4.513Z" transform="translate(228.854 163)" fill="#fff"/>
  </g>
</svg>
