<svg xmlns="http://www.w3.org/2000/svg" width="22.163" height="22.163" viewBox="0 0 22.163 22.163">
  <g id="Grupo_394" data-name="Grupo 394" transform="translate(-197.254 -158.072)">
    <circle id="Elipse_18" data-name="Elipse 18" cx="11.082" cy="11.082" r="11.082" transform="translate(197.254 158.072)" fill="#240046"/>
    <path id="Icon_awesome-youtube" data-name="Icon awesome-youtube" d="M14.565,6.019a1.734,1.734,0,0,0-1.22-1.228A40.988,40.988,0,0,0,7.952,4.5a40.988,40.988,0,0,0-5.393.29,1.734,1.734,0,0,0-1.22,1.228A18.2,18.2,0,0,0,1.05,9.363a18.2,18.2,0,0,0,.288,3.344,1.709,1.709,0,0,0,1.22,1.209,40.988,40.988,0,0,0,5.393.29,40.988,40.988,0,0,0,5.393-.29,1.709,1.709,0,0,0,1.22-1.209,18.2,18.2,0,0,0,.288-3.344,18.2,18.2,0,0,0-.288-3.344Zm-8.025,5.4V7.31l3.608,2.052L6.54,11.415Z" transform="translate(200.384 159.801)" fill="#fff"/>
  </g>
</svg>
