<svg xmlns="http://www.w3.org/2000/svg" xmlns:xlink="http://www.w3.org/1999/xlink" width="200" height="201.752" viewBox="0 0 200 201.752"><defs><linearGradient id="a" x1="0.063" y1="1.38" x2="0.942" y2="-0.561" gradientUnits="objectBoundingBox"><stop offset="0" stop-color="#c77dff"/><stop offset="0.146" stop-color="#9d4edd"/><stop offset="0.318" stop-color="#7b2cbf"/><stop offset="0.523" stop-color="#5a189a"/><stop offset="0.808" stop-color="#3c096c"/><stop offset="1" stop-color="#240046"/></linearGradient></defs><g transform="translate(-1970.377 -1484.792)"><rect width="200" height="201.752" rx="15" transform="translate(1970.377 1484.792)" fill="url(#a)"/><g transform="matrix(0.799, -0.602, 0.602, 0.799, 2043.537, 1508.924)" fill="#fff"><path d="M 11.73445510864258 25.90251731872559 L 2.933615446090698 25.90251731872559 C 1.591715455055237 25.90251731872559 0.5000054240226746 24.8107967376709 0.5000054240226746 23.46889686584473 L 0.4999954104423523 8.800836563110352 C 0.4999954104423523 8.102176666259766 0.8000053763389587 5.962516784667969 1.342465400695801 3.921266794204712 C 2.084625482559204 1.128536701202393 2.756695508956909 0.4999967515468597 2.933615446090698 0.4999967515468597 L 11.73444557189941 0.5000067353248596 C 11.9113655090332 0.5000067353248596 12.58343505859375 1.128546714782715 13.32559585571289 3.921266794204712 C 13.86805534362793 5.962516784667969 14.16806507110596 8.102187156677246 14.16806507110596 8.800836563110352 L 14.16806507110596 23.46890640258789 C 14.16806507110596 24.11894607543945 13.91493511199951 24.73007583618164 13.45528507232666 25.18972587585449 C 12.99563503265381 25.64937591552734 12.38449573516846 25.90251731872559 11.73445510864258 25.90251731872559 Z" stroke="none"/><path d="M 3.068386077880859 0.9999961853027344 C 2.908123016357422 1.16633415222168 2.352142333984375 1.897912979125977 1.708405494689941 4.507846832275391 C 1.246175765991211 6.381866455078125 0.999995231628418 8.205146789550781 0.999995231628418 8.800836563110352 L 1.000005722045898 23.46889686584473 C 1.000005722045898 24.53509712219238 1.867424964904785 25.40250587463379 2.933615684509277 25.40251731872559 L 11.73445510864258 25.40251731872559 C 12.25094509124756 25.40251731872559 12.73651504516602 25.20138740539551 13.10172557830811 24.8361759185791 C 13.46693515777588 24.47096633911133 13.66806507110596 23.98539733886719 13.66806507110596 23.46890640258789 L 13.66806507110596 8.800836563110352 C 13.66806507110596 8.205146789550781 13.42188549041748 6.381856918334961 12.95965576171875 4.507837295532227 C 12.31591892242432 1.897911071777344 11.75993061065674 1.16633415222168 11.59966564178467 0.9999961853027344 L 3.068386077880859 0.9999961853027344 M 2.933605194091797 -3.814697265625e-06 L 11.73444557189941 -3.814697265625e-06 C 13.35463523864746 -3.814697265625e-06 14.66806507110596 7.180646896362305 14.66806507110596 8.800836563110352 L 14.66806507110596 23.46890640258789 C 14.66807556152344 25.08909606933594 13.35464572906494 26.40251731872559 11.73445510864258 26.40251731872559 L 2.933615684509277 26.40251731872559 C 1.313425064086914 26.40250587463379 5.7220458984375e-06 25.08908653259277 5.7220458984375e-06 23.46889686584473 L -4.76837158203125e-06 8.800836563110352 C -4.76837158203125e-06 7.180646896362305 1.313425064086914 -3.814697265625e-06 2.933605194091797 -3.814697265625e-06 Z" stroke="none" fill="#fff"/></g><g transform="translate(1995.537 1560.889)"><ellipse cx="37.856" cy="37.929" rx="37.856" ry="37.929" transform="translate(7.752 7.778)" fill="#fff"/><ellipse cx="25.213" cy="25.286" rx="25.213" ry="25.286" transform="translate(20.395 20.422)" fill="#7b2cbf"/><rect width="17.837" height="17.837" rx="2" transform="translate(36.689)" fill="#fff"/><rect width="17.837" height="17.837" rx="2" transform="translate(36.689 73.579)" fill="#fff"/><rect width="18.696" height="18.696" rx="2" transform="translate(74.574 51.817) rotate(30)" fill="#fff"/><rect width="18.696" height="18.696" rx="2" transform="translate(77.996 12.275) rotate(45)" fill="#fff"/><rect width="18.696" height="18.696" rx="2" transform="translate(16.642 51.817) rotate(60)" fill="#fff"/><rect width="18.696" height="18.696" rx="2" transform="translate(13.22 12.275) rotate(45)" fill="#fff"/><ellipse cx="20.689" cy="20.689" rx="20.689" ry="20.689" transform="translate(24.919 25.019)" fill="#fff"/></g><path d="M82.856,77.574,53.814,42.049A13.174,13.174,0,0,1,41.057,26.443l-1.416-1.731L17.411,41.485l1.2,1.805A13.2,13.2,0,0,1,30.6,61.327L55.918,99.4a7.251,7.251,0,0,0,10.2,1.069l15.673-12.7a7.25,7.25,0,0,0,1.068-10.2" transform="translate(2060.073 1522.268)" fill="#fff"/><path d="M52.144,75.835h0a1.742,1.742,0,0,1-2.431-.4L29.366,46.963A1.742,1.742,0,0,1,32.2,44.937L52.548,73.4a1.742,1.742,0,0,1-.4,2.431" transform="translate(2068.365 1538.428)" fill="#7b2cbf"/><path d="M59.614,70.255h0a1.742,1.742,0,0,1-2.431-.4L36.836,41.383a1.742,1.742,0,0,1,2.835-2.026L60.018,67.824a1.742,1.742,0,0,1-.4,2.431" transform="translate(2074.761 1533.638)" fill="#7b2cbf"/><path d="M56.1,73.135h0a1.742,1.742,0,0,1-2.431-.4L33.326,44.263a1.742,1.742,0,0,1,2.835-2.026L56.508,70.7a1.742,1.742,0,0,1-.4,2.431" transform="translate(2071.756 1536.11)" fill="#7b2cbf"/><rect width="9.448" height="38.405" transform="translate(2060.068 1526.451) rotate(-37.439)" fill="#fff"/><rect width="98.62" height="122.168" transform="translate(2045.926 1500.096)" fill="none"/></g></svg>