<svg xmlns="http://www.w3.org/2000/svg" xmlns:xlink="http://www.w3.org/1999/xlink" width="200" height="201.752" viewBox="0 0 200 201.752"><defs><linearGradient id="a" x1="0.063" y1="1.38" x2="0.942" y2="-0.561" gradientUnits="objectBoundingBox"><stop offset="0" stop-color="#c77dff"/><stop offset="0.146" stop-color="#9d4edd"/><stop offset="0.318" stop-color="#7b2cbf"/><stop offset="0.523" stop-color="#5a189a"/><stop offset="0.808" stop-color="#3c096c"/><stop offset="1" stop-color="#240046"/></linearGradient></defs><rect width="200" height="201.752" rx="15" fill="url(#a)"/><path d="M154.746,97.369a10.32,10.32,0,0,0,.3,1.211,27.848,27.848,0,0,1,1.578,10.895c-.057,5.009-.01,10.022-.016,15.032-.009,8.415-.07,16.83-.016,25.244a5.448,5.448,0,0,1-5.476,5.692c-5.817-.153-11.64-.045-17.462-.05a4.859,4.859,0,0,1-4.878-4.564c-.172-2.794-.089-5.605-.108-8.408-.011-1.558,0-1.56-1.442-1.56H95q-9.862,0-19.724,0c-4.994.007-9.988.062-14.982.025-1.063-.008-1.342.356-1.314,1.413.067,2.429-.046,4.864.038,7.292a5.529,5.529,0,0,1-5.608,5.836q-8.512-.191-17.03-.013A5.522,5.522,0,0,1,31,149.81c.074-4.45.048-8.9.051-13.351.006-9.387.023-18.773-.009-28.16a25.932,25.932,0,0,1,1.522-9.56c.145-.375.224-.778.379-1.326-.415-.037-.749-.09-1.082-.092-1.617-.013-3.235.026-4.85-.028a3.007,3.007,0,0,1-2.868-3.922,45.63,45.63,0,0,1,2.31-6.625,6.415,6.415,0,0,1,6.03-3.977c1.365-.019,2.734-.074,4.094.016.979.064,1.386-.373,1.69-1.269q3.219-9.512,6.513-19c1.026-2.949,2.187-5.848,3.195-8.8,1.4-4.1,4.226-6.712,7.856-8.626,6.206-3.273,12.845-4.548,19.708-5.131a241.024,241.024,0,0,1,33.92-.219c6.862.385,13.662,1.282,20.1,4.025a19.449,19.449,0,0,1,7.312,5.008c1.57,1.8,2.24,4.077,3.035,6.264q4.817,13.258,9.5,26.568c.322.912.711,1.305,1.679,1.233,1.287-.1,2.591.056,3.878-.04,2.93-.218,5.876,2.429,6.623,4.684.62,1.872,1.315,3.716,1.89,5.6a3.07,3.07,0,0,1-2.574,4.149c-1.528.176-3.083.1-4.626.133C155.824,97.378,155.366,97.369,154.746,97.369ZM138.98,84.725c-.063-.34-.106-.633-.174-.919a236.455,236.455,0,0,0-8.269-26.4,4.983,4.983,0,0,0-2.4-2.871,20.787,20.787,0,0,0-3.387-1.431,69.6,69.6,0,0,0-17.534-2.721,221.045,221.045,0,0,0-30.906.258,63.336,63.336,0,0,0-13.685,2.325,8.723,8.723,0,0,0-6.116,5.7c-2.518,7.043-4.909,14.114-6.73,21.387-.394,1.572-.811,3.138-1.211,4.681C64.613,91.65,122.58,91.634,138.98,84.725ZM54.024,119.568l0-.3c2.655,0,5.313.064,7.967-.02a3.881,3.881,0,0,0,3.915-2.756,4.17,4.17,0,0,0-1.8-4.755,10.077,10.077,0,0,0-1.839-1.155c-3.967-1.826-7.918-3.7-11.94-5.385a18.13,18.13,0,0,0-7.958-1.707c-2.5.127-3.882,1.212-4.14,3.774-.2,2.035-.085,4.1-.151,6.155a4.488,4.488,0,0,0,2.588,4.4,10.572,10.572,0,0,0,2.12.8C46.48,119.636,50.265,119.431,54.024,119.568Zm79.416.077,0-.37c2.514,0,5.043.18,7.536-.057a26.617,26.617,0,0,0,5.837-1.4,3.536,3.536,0,0,0,2.65-3.332,70.738,70.738,0,0,0-.226-7.823,3.441,3.441,0,0,0-3.18-3.028,11.278,11.278,0,0,0-5.949.561c-3.417,1.356-6.838,2.712-10.2,4.208a49.43,49.43,0,0,0-6.429,3.363,4.036,4.036,0,0,0,2.1,7.524C128.2,119.445,130.821,119.53,133.44,119.646Z" transform="translate(6.17 3.527)" fill="#fff"/></svg>