<svg xmlns="http://www.w3.org/2000/svg" xmlns:xlink="http://www.w3.org/1999/xlink" width="200" height="201.752" viewBox="0 0 200 201.752"><defs><linearGradient id="a" x1="0.063" y1="1.38" x2="0.942" y2="-0.561" gradientUnits="objectBoundingBox"><stop offset="0" stop-color="#c77dff"/><stop offset="0.146" stop-color="#9d4edd"/><stop offset="0.318" stop-color="#7b2cbf"/><stop offset="0.523" stop-color="#5a189a"/><stop offset="0.808" stop-color="#3c096c"/><stop offset="1" stop-color="#240046"/></linearGradient></defs><g transform="translate(-1970.377 -1729.652)"><rect width="200" height="201.752" rx="15" transform="translate(1970.377 1729.652)" fill="url(#a)"/><g transform="translate(2013.15 1774.592)"><path d="M106.866,111.983c1.981-1.429,9.32-6.892,14.368-11.367,1.95-1.376-4.407-5.49-2.371-7.186,5.734-4.777,11.48-9.265,11.48-9.265" transform="translate(-11.04 -59.894)" fill="none"/><path d="M88.373,142.874a5.992,5.992,0,0,1-6.71-8.581l9.866-19.075,11.58-22.391a5.993,5.993,0,0,1,10.043-.939l11.984,15.325,11.983,15.325a5.992,5.992,0,0,1-3.331,9.52L109.265,137.9Z" transform="translate(-27.564 -56.433)" fill="none"/><g transform="translate(0 0)"><path d="M84.9,127.023v2.349h41.741v-12.16l-40.4,9.622A7.865,7.865,0,0,1,84.9,127.023Z" transform="translate(-25.059 -38.8)" fill="#fff"/><path d="M126.644,86.61H84.9v19.676H92.78l6.368-12.312a7.63,7.63,0,0,1,12.789-1.194l10,12.787c1.368-1.03,3.008-2.287,4.708-3.63Z" transform="translate(-25.059 -58.334)" fill="#fff"/><rect width="42.455" height="19.676" transform="translate(15.769 28.276)" fill="#fff"/><rect width="41.064" height="19.676" transform="translate(38.458 7.003)" fill="#fff"/><path d="M98.052,112.625H58V132.3h42.455v-2.418a7.7,7.7,0,0,1-5.411-3.591,7.463,7.463,0,0,1-.252-7.456Z" transform="translate(-42.231 -41.728)" fill="#fff"/><path d="M122.556,112.625h-2.025a7.738,7.738,0,0,1-.334,1.42,7.6,7.6,0,0,1-5.434,4.9l-3.388.808V132.3h10.846a3.423,3.423,0,0,0,3.422-3.424V115.713A3.087,3.087,0,0,0,122.556,112.625Z" transform="translate(-8.162 -41.728)" fill="#fff"/><path d="M51.8,132.3H62.643V112.625H51.463a3.088,3.088,0,0,0-3.088,3.088v13.164A3.425,3.425,0,0,0,51.8,132.3Z" transform="translate(-48.375 -41.728)" fill="#fff"/><path d="M51.8,106.3H62.643V86.625H51.463a3.088,3.088,0,0,0-3.088,3.088v13.164A3.425,3.425,0,0,0,51.8,106.3Z" transform="translate(-48.375 -58.324)" fill="#fff"/><path d="M51.272,93.249c.015.016.026.036.041.052h33.9V73.625H51.463a3.088,3.088,0,0,0-3.088,3.088V89.877A3.417,3.417,0,0,0,51.272,93.249Z" transform="translate(-48.375 -66.622)" fill="#fff"/><path d="M113.89,89.343c1.111-.926,2.225-1.841,3.3-2.718h-5.813v14c1.15-.926,2.3-1.869,3.375-2.788-.043-.052-.08-.1-.118-.151C113.479,96.2,110.415,92.235,113.89,89.343Z" transform="translate(-8.162 -58.324)" fill="#fff"/><path d="M118.146,92.52l.346.452c1.155,1.493,2.462,3.185,2.148,5.29a4.09,4.09,0,0,1-1.529,2.61c-1.722,1.522-3.707,3.159-5.662,4.72H120.9a3.423,3.423,0,0,0,3.422-3.424V89a3.074,3.074,0,0,0-.279-1.27C122.338,89.1,120.273,90.766,118.146,92.52Z" transform="translate(-6.838 -57.616)" fill="#fff"/><path d="M51.272,119.268c.015.016.026.036.041.052h33.9V99.644h1.622V119.32H105.07L115.27,99.6h-7.051v.049H106.6V99.6H64.768v.049h-13.3a3.088,3.088,0,0,0-3.088,3.088V115.9A3.417,3.417,0,0,0,51.272,119.268Z" transform="translate(-48.375 -50.045)" fill="#fff"/><path d="M123.452,99.625h-9.838c-1.312,1.024-2.557,1.977-3.642,2.8l9.93,12.7a7.606,7.606,0,0,1,1.6,4.179h2.6c.061-.066.1-.141.161-.21a3.414,3.414,0,0,0,2.281-3.214V102.713A3.087,3.087,0,0,0,123.452,99.625Z" transform="translate(-9.057 -50.026)" fill="#fff"/><path d="M134.242,79.056V76.713a3.087,3.087,0,0,0-3.087-3.088H97.9V93.3h29.883c1.032-.834,1.981-1.594,2.826-2.269l-4.433-6.324Z" transform="translate(-16.761 -66.622)" fill="#fff"/><path d="M131.156,125.625H97.9V145.3H130.82a3.423,3.423,0,0,0,3.422-3.424V128.713A3.087,3.087,0,0,0,131.156,125.625Z" transform="translate(-16.761 -33.43)" fill="#fff"/><path d="M71.9,125.625V145.3h40.974V125.625H71.9Z" transform="translate(-33.357 -33.43)" fill="#fff"/><path d="M62.643,125.625H51.463a3.088,3.088,0,0,0-3.088,3.088v13.164A3.425,3.425,0,0,0,51.8,145.3H85.3V125.625H62.643Z" transform="translate(-48.375 -33.43)" fill="#fff"/><path d="M152.234,84.427,126.7,102.319,116.555,87.838l25.53-17.894a3.276,3.276,0,0,1,4.564.8l6.388,9.116A3.277,3.277,0,0,1,152.234,84.427Z" transform="translate(-4.855 -69.351)" fill="#fff"/><path d="M146.649,70.747a3.276,3.276,0,0,0-4.564-.8l-25.53,17.894L126.7,102.319l25.53-17.892a3.277,3.277,0,0,0,.8-4.564Z" transform="translate(-4.855 -69.351)" fill="#fff"/></g></g></g></svg>