<svg xmlns="http://www.w3.org/2000/svg" xmlns:xlink="http://www.w3.org/1999/xlink" viewBox="0 0 108 109">
  <defs>
    <linearGradient id="linear-gradient" x1="0.063" y1="1.38" x2="0.942" y2="-0.561" gradientUnits="objectBoundingBox">
      <stop offset="0" stop-color="#c77dff"/>
      <stop offset="0.146" stop-color="#9d4edd"/>
      <stop offset="0.318" stop-color="#7b2cbf"/>
      <stop offset="0.523" stop-color="#5a189a"/>
      <stop offset="0.808" stop-color="#3c096c"/>
      <stop offset="1" stop-color="#240046"/>
    </linearGradient>
  </defs>
  <g id="Grupo_380" data-name="Grupo 380" transform="translate(-283 -1164)">
    <rect id="Retângulo_235" data-name="Retângulo 235" width="108" height="109" rx="15" transform="translate(283 1164)" fill="url(#linear-gradient)"/>
    <g id="bricks" transform="translate(305.965 1191.658)">
      <path id="Caminho_265" data-name="Caminho 265" d="M50.328,36.986H3.355V43.7H50.328ZM3.355,33.631A3.355,3.355,0,0,0,0,36.986V43.7a3.355,3.355,0,0,0,3.355,3.355H50.328A3.355,3.355,0,0,0,53.683,43.7v-6.71a3.355,3.355,0,0,0-3.355-3.355Zm31.9-16.776H3.355v6.71h31.9ZM3.355,13.5A3.355,3.355,0,0,0,0,16.855v6.71a3.355,3.355,0,0,0,3.355,3.355h31.9c-.174.054,0-1.5,0-3.355v-6.71C35.251,15,40.756,13.5,38.9,13.5Z" transform="translate(0 6.631)" fill="#fff" fill-rule="evenodd"/>
      <path id="Caminho_266" data-name="Caminho 266" d="M31.475,30.236H7.855v6.71h23.62ZM7.855,26.881A3.355,3.355,0,0,0,4.5,30.236v6.71A3.355,3.355,0,0,0,7.855,40.3H41.407c1.853,0-9.932-2.246-9.932-4.1V30.236c0-1.853,1.853-3.355,0-3.355ZM41.407,10.105H7.855v6.71H36.867ZM7.855,6.75A3.355,3.355,0,0,0,4.5,10.105v6.71a3.355,3.355,0,0,0,3.355,3.355H36.867c1.853,0,0-1.5,0-3.355l4.541-6.71c0-1.853,1.853-3.355,0-3.355Z" transform="translate(2.21 3.316)" fill="#fff" fill-rule="evenodd"/>
      <path id="Caminho_267" data-name="Caminho 267" d="M50.328,3.355H3.355v6.71H50.328ZM3.355,0A3.355,3.355,0,0,0,0,3.355v6.71a3.355,3.355,0,0,0,3.355,3.355H50.328a3.355,3.355,0,0,0,3.355-3.355V3.355A3.355,3.355,0,0,0,50.328,0Z" transform="translate(0)" fill="#fff" fill-rule="evenodd"/>
      <path id="Caminho_268" data-name="Caminho 268" d="M13.48,2.25V8.96H10.125V2.25Zm20.131,0V8.96H30.256V2.25ZM20.191,19.026v-6.71h3.355v6.71Zm-6.71,3.355v6.71H10.125v-6.71Zm16.776,0v6.71h0v-6.71ZM20.191,39.157v-6.71h3.355v6.71ZM10.125,49.223v-6.71H13.48v6.71Zm20.131,0v-6.71h3.355v6.71Z" transform="translate(4.973 1.105)" fill="#fff" fill-rule="evenodd"/>
    </g>
    <g id="Grupo_287" data-name="Grupo 287" transform="translate(324.297 1187.823)">
      <g id="Polígono_6" data-name="Polígono 6" transform="translate(21.833 60.024) rotate(-131)" fill="none">
        <path d="M13.059,7.185a4,4,0,0,1,7.16,0L30.4,27.607a4,4,0,0,1-3.58,5.784H6.462a4,4,0,0,1-3.58-5.784Z" stroke="none"/>
        <path d="M 16.63917541503906 6.968559265136719 C 15.86401557922363 6.968559265136719 15.19482612609863 7.382759094238281 14.84910583496094 8.076559066772461 L 4.672285079956055 28.49925994873047 C 4.223775863647461 29.39931869506836 4.585445404052734 30.15901947021484 4.761754989624023 30.44386863708496 C 4.938076019287109 30.72871971130371 5.45672607421875 31.39125823974609 6.46235466003418 31.39125823974609 L 26.81599426269531 31.39125823974609 C 27.82161521911621 31.39125823974609 28.34026527404785 30.72871971130371 28.51658630371094 30.44386863708496 C 28.69289588928223 30.15901947021484 29.0545654296875 29.3993091583252 28.60606575012207 28.49925994873047 L 18.42922592163086 8.076549530029297 C 18.08351516723633 7.382759094238281 17.41433525085449 6.968559265136719 16.63917541503906 6.968559265136719 M 16.63917350769043 4.968563079833984 C 18.06115531921387 4.968563079833984 19.48313522338867 5.707223892211914 20.21929550170898 7.184549331665039 L 30.39612579345703 27.60725021362305 C 31.72126579284668 30.26652908325195 29.78715515136719 33.39125823974609 26.81599426269531 33.39125823974609 L 6.46235466003418 33.39125823974609 C 3.491186141967773 33.39125823974609 1.557075500488281 30.26653861999512 2.882225036621094 27.60725021362305 L 13.05904579162598 7.184549331665039 C 13.79520988464355 5.707223892211914 15.21719360351562 4.968563079833984 16.63917350769043 4.968563079833984 Z" stroke="none" fill="#fff"/>
      </g>
      <path id="Caminho_226" data-name="Caminho 226" d="M-302.782,575.788c7.509-5.172,3.68-2.432,4.783-3.3l1.086-.836c2.379-2.615-2.808-2.3,0-4.529s5.616-4.326,5.616-4.326" transform="translate(338.33 -549.796)" fill="none" stroke="#fff" stroke-width="2"/>
      <g id="Retângulo_167" data-name="Retângulo 167" transform="matrix(0.574, 0.819, -0.819, 0.574, 57.089, 0)" fill="none" stroke="#fff" stroke-width="2">
        <path d="M3,0H6.788a3,3,0,0,1,3,3V17.618a0,0,0,0,1,0,0H0a0,0,0,0,1,0,0V3A3,3,0,0,1,3,0Z" stroke="none"/>
        <path d="M3,1H6.788a2,2,0,0,1,2,2V16.618a0,0,0,0,1,0,0H1a0,0,0,0,1,0,0V3A2,2,0,0,1,3,1Z" fill="none"/>
      </g>
    </g>
  </g>
</svg>
