<svg xmlns="http://www.w3.org/2000/svg" viewBox="0 0 107.86 110.7"><defs><style>.cls-1{fill:#634092;}.cls-2{fill:#fff;}.cls-3,.cls-4{fill:none;stroke:#fff;}</style></defs><g id="Camada_2" data-name="Camada 2"><g id="Camada_1-2" data-name="Camada 1"><rect id="Retângulo_166" data-name="Retângulo 166" class="cls-1" width="107.86" height="110.7" rx="15"/><g id="Grupo_300" data-name="Grupo 300"><g id="Caminho_216" data-name="Caminho 216"><path class="cls-1" d="M33.44,49.82H7.18c-.41,0-1-1-1-2.47V39c0-1.51.59-2.47,1-2.47H33.44c.41,0,1,1,1,2.47v8.33C34.43,48.86,33.85,49.82,33.44,49.82Z"/><path class="cls-2" d="M7.23,37.05a2.92,2.92,0,0,0-.55,2v8.33a2.92,2.92,0,0,0,.55,2H33.38a2.92,2.92,0,0,0,.55-2V39a2.92,2.92,0,0,0-.55-2H7.23m-.05-1H33.44c.83,0,1.49,1.33,1.49,3v8.33c0,1.64-.66,3-1.49,3H7.18c-.83,0-1.5-1.33-1.5-3V39C5.68,37.38,6.35,36.05,7.18,36.05Z"/></g><g id="Caminho_227" data-name="Caminho 227"><path class="cls-1" d="M62.69,49.82H36.43c-.41,0-1-1-1-2.47V39c0-1.51.59-2.47,1-2.47H62.69c.41,0,1,1,1,2.47v8.33C63.69,48.86,63.1,49.82,62.69,49.82Z"/><path class="cls-2" d="M36.49,37.05a2.85,2.85,0,0,0-.56,2v8.33a2.85,2.85,0,0,0,.56,2H62.63a2.85,2.85,0,0,0,.56-2V39a2.85,2.85,0,0,0-.56-2H36.49m-.06-1H62.69c.83,0,1.5,1.33,1.5,3v8.33c0,1.64-.67,3-1.5,3H36.43c-.83,0-1.5-1.33-1.5-3V39C34.93,37.38,35.6,36.05,36.43,36.05Z"/></g><g id="Caminho_228" data-name="Caminho 228"><path class="cls-1" d="M92,49.82H65.68c-.41,0-1-1-1-2.47V39c0-1.51.58-2.47,1-2.47H92c.4,0,1,1,1,2.47v8.33C92.94,48.86,92.35,49.82,92,49.82Z"/><path class="cls-2" d="M65.74,37.05a2.92,2.92,0,0,0-.55,2v8.33a2.92,2.92,0,0,0,.55,2H91.89a2.92,2.92,0,0,0,.55-2V39a2.92,2.92,0,0,0-.55-2H65.74m-.06-1H92c.82,0,1.49,1.33,1.49,3v8.33c0,1.64-.67,3-1.49,3H65.68c-.83,0-1.49-1.33-1.49-3V39C64.19,37.38,64.85,36.05,65.68,36.05Z"/></g></g><g id="Grupo_289" data-name="Grupo 289"><g id="Grupo_299" data-name="Grupo 299"><g id="Caminho_216-2" data-name="Caminho 216-2"><path class="cls-1" d="M33.44,78.29H7.18c-.41,0-1-1-1-2.48V67.49c0-1.51.59-2.48,1-2.48H33.44c.41,0,1,1,1,2.48v8.32C34.43,77.33,33.85,78.29,33.44,78.29Z"/><path class="cls-2" d="M7.23,65.51a3,3,0,0,0-.55,2v8.32a3,3,0,0,0,.55,2H33.38a3,3,0,0,0,.55-2V67.49a3,3,0,0,0-.55-2H7.23m-.05-1H33.44c.83,0,1.49,1.34,1.49,3v8.32c0,1.65-.66,3-1.49,3H7.18c-.83,0-1.5-1.33-1.5-3V67.49C5.68,65.85,6.35,64.51,7.18,64.51Z"/></g><g id="Caminho_227-2" data-name="Caminho 227-2"><path class="cls-1" d="M62.69,78.29H36.43c-.41,0-1-1-1-2.48V67.49c0-1.51.59-2.48,1-2.48H62.69c.41,0,1,1,1,2.48v8.32C63.69,77.33,63.1,78.29,62.69,78.29Z"/><path class="cls-2" d="M36.49,65.51a2.89,2.89,0,0,0-.56,2v8.32a2.89,2.89,0,0,0,.56,2H62.63a2.89,2.89,0,0,0,.56-2V67.49a2.89,2.89,0,0,0-.56-2H36.49m-.06-1H62.69c.83,0,1.5,1.34,1.5,3v8.32c0,1.65-.67,3-1.5,3H36.43c-.83,0-1.5-1.33-1.5-3V67.49C34.93,65.85,35.6,64.51,36.43,64.51Z"/></g><g id="Caminho_228-2" data-name="Caminho 228-2"><path class="cls-1" d="M92,78.29H65.68c-.41,0-1-1-1-2.48V67.49c0-1.51.58-2.48,1-2.48H92c.4,0,1,1,1,2.48v8.32C92.94,77.33,92.35,78.29,92,78.29Z"/><path class="cls-2" d="M65.74,65.51a3,3,0,0,0-.55,2v8.32a3,3,0,0,0,.55,2H91.89a3,3,0,0,0,.55-2V67.49a3,3,0,0,0-.55-2H65.74m-.06-1H92c.82,0,1.49,1.34,1.49,3v8.32c0,1.65-.67,3-1.49,3H65.68c-.83,0-1.49-1.33-1.49-3V67.49C64.19,65.85,64.85,64.51,65.68,64.51Z"/></g></g><g id="Grupo_287" data-name="Grupo 287"><g id="Polígono_6" data-name="Polígono 6"><path class="cls-2" d="M67.14,17.42,84.73,37.66a1.49,1.49,0,0,1,.3,1.43,1.5,1.5,0,0,1-1,1L54.87,47.63a1.5,1.5,0,0,1-1.76-2L64.62,17.83a1.5,1.5,0,0,1,2.52-.41Z"/><path class="cls-1" d="M53.74,46.83a1,1,0,0,0,1,.31l29.1-7.53a1,1,0,0,0,.5-1.62L66.76,17.75a1,1,0,0,0-.91-.33,1,1,0,0,0-.77.6L53.57,45.79a1,1,0,0,0,.17,1m-.75.66a2,2,0,0,1-.34-2.08L64.16,17.64a2,2,0,0,1,3.36-.55L85.11,37.33a2,2,0,0,1-1,3.25L55,48.11A2,2,0,0,1,53,47.49Z"/></g><path id="Caminho_226" data-name="Caminho 226" class="cls-3" d="M69.08,33.49c8.19-5.72,8.47-6.13,9.67-7.09,1-.78,2.35-1.94,2.35-1.94,2.6-2.9-3.06-2.55,0-5s6.13-4.79,6.13-4.79"/><g id="Retângulo_167" data-name="Retângulo 167"><path class="cls-2" d="M99,4.11l2.17,3.1a3,3,0,0,1-.73,4.18l-12,8.39h0l-5.62-8h0l12-8.39A3,3,0,0,1,99,4.11Z"/><path class="cls-4" d="M98.6,4.4l2.17,3.1a2.5,2.5,0,0,1-.61,3.48L88.6,19.08h0l-5-7.19h0L95.11,3.78A2.52,2.52,0,0,1,98.6,4.4Z"/></g></g><g id="Grupo_301" data-name="Grupo 301"><g id="Caminho_216-3" data-name="Caminho 216-3"><path class="cls-1" d="M42.9,64H16.64c-.41,0-1-1-1-2.47V53.21c0-1.51.59-2.47,1-2.47H42.9c.41,0,1,1,1,2.47v8.33C43.9,63.05,43.31,64,42.9,64Z"/><path class="cls-2" d="M16.7,51.24a2.85,2.85,0,0,0-.56,2v8.33a2.85,2.85,0,0,0,.56,2H42.84a2.85,2.85,0,0,0,.56-2V53.21a2.85,2.85,0,0,0-.56-2H16.7m-.06-1H42.9c.83,0,1.5,1.33,1.5,3v8.33c0,1.64-.67,3-1.5,3H16.64c-.83,0-1.5-1.33-1.5-3V53.21C15.14,51.57,15.81,50.24,16.64,50.24Z"/></g><g id="Caminho_227-3" data-name="Caminho 227-3"><path class="cls-1" d="M72.15,64H45.89c-.41,0-1-1-1-2.47V53.21c0-1.51.59-2.47,1-2.47H72.15c.41,0,1,1,1,2.47v8.33C73.15,63.05,72.56,64,72.15,64Z"/><path class="cls-2" d="M46,51.24a2.91,2.91,0,0,0-.56,2v8.33a2.91,2.91,0,0,0,.56,2H72.09a2.85,2.85,0,0,0,.56-2V53.21a2.85,2.85,0,0,0-.56-2H46m-.06-1H72.15c.83,0,1.5,1.33,1.5,3v8.33c0,1.64-.67,3-1.5,3H45.89c-.83,0-1.5-1.33-1.5-3V53.21C44.39,51.57,45.06,50.24,45.89,50.24Z"/></g><g id="Caminho_228-3" data-name="Caminho 228-3"><path class="cls-1" d="M101.41,64H75.14c-.41,0-1-1-1-2.47V53.21c0-1.51.58-2.47,1-2.47h26.27c.4,0,1,1,1,2.47v8.33C102.4,63.05,101.81,64,101.41,64Z"/><path class="cls-2" d="M75.2,51.24a2.92,2.92,0,0,0-.55,2v8.33a2.92,2.92,0,0,0,.55,2h26.15a2.92,2.92,0,0,0,.55-2V53.21a2.92,2.92,0,0,0-.55-2H75.2m-.06-1h26.27c.82,0,1.49,1.33,1.49,3v8.33c0,1.64-.67,3-1.49,3H75.14c-.82,0-1.49-1.33-1.49-3V53.21C73.65,51.57,74.32,50.24,75.14,50.24Z"/></g></g></g></g></g></svg>