<svg xmlns="http://www.w3.org/2000/svg" xmlns:xlink="http://www.w3.org/1999/xlink" width="200" height="201.752" viewBox="0 0 200 201.752"><defs><linearGradient id="a" x1="0.063" y1="1.38" x2="0.942" y2="-0.561" gradientUnits="objectBoundingBox"><stop offset="0" stop-color="#c77dff"/><stop offset="0.146" stop-color="#9d4edd"/><stop offset="0.318" stop-color="#7b2cbf"/><stop offset="0.523" stop-color="#5a189a"/><stop offset="0.808" stop-color="#3c096c"/><stop offset="1" stop-color="#240046"/></linearGradient></defs><rect width="200" height="201.752" rx="15" fill="url(#a)"/><g transform="translate(31.503 46.914)"><path d="M132.625,92.676c17.454.832,13.584-5.572,13.584-12.382l.068-61.911c0-6.81,3.8-12.4-13.652-12.382H23.408C8.134,5.986,9.756,11.572,9.756,18.382V80.294c0,6.81-.377,12.65,13.652,12.382ZM23.408,15.585H132.625V82.779H23.408Z" transform="translate(-9.706 -6)" fill="#fff"/><rect width="16.817" height="11.212" transform="translate(58.86 85.348)" fill="#fff"/><path d="M21.022,0H84.086c1.548,0,21.022,1.487,21.022,8.3a3.1,3.1,0,0,1-2.8,3.321H2.8A3.1,3.1,0,0,1,0,8.3C0,1.487,19.474,0,21.022,0Z" transform="translate(15.416 95.158)" fill="#fff"/></g><g transform="translate(72.131 74.736)"><path d="M24.3,15.12a2.161,2.161,0,0,0-3-.561L7.187,24.174a2.161,2.161,0,0,0,0,3.565l14.107,9.615a2.161,2.161,0,1,0,2.441-3.565l-11.494-7.82,11.5-7.8A2.161,2.161,0,0,0,24.3,15.12Z" transform="translate(-6.248 -9.1)" fill="#fff"/><path d="M43.3,24.172,29.191,14.557a2.178,2.178,0,1,0-2.443,3.607l11.494,7.843L26.748,33.85a2.161,2.161,0,0,0,2.441,3.565L43.3,27.8a2.161,2.161,0,0,0,0-3.565Z" transform="translate(10.4 -9.099)" fill="#fff"/><path d="M27.791,11.494a1.944,1.944,0,0,0-2.356,1.426L18,42.735A1.944,1.944,0,0,0,19.43,45.09h.476a1.944,1.944,0,0,0,1.88-1.469l7.431-29.837a1.944,1.944,0,0,0-1.426-2.291Z" transform="translate(3.718 -11.437)" fill="#fff"/></g></svg>