<svg xmlns="http://www.w3.org/2000/svg" viewBox="0 0 107.86 108.8"><defs><style>.cls-1{fill:#634092;}.cls-2,.cls-3{fill:#fff;}.cls-10,.cls-11,.cls-3,.cls-5,.cls-6,.cls-7,.cls-9{stroke:#fff;}.cls-10,.cls-11,.cls-4,.cls-5,.cls-6,.cls-7,.cls-8,.cls-9{fill:none;}.cls-4,.cls-8{stroke:#634092;}.cls-4,.cls-7{stroke-linecap:round;}.cls-5{stroke-miterlimit:4;}.cls-6,.cls-7,.cls-8,.cls-9{stroke-miterlimit:4;}.cls-6,.cls-7,.cls-8{stroke-width:1px;}.cls-9{stroke-width:2px;}.cls-10{stroke-miterlimit:4;stroke-width:1px;}.cls-11{stroke-miterlimit:4;}</style></defs><g id="Camada_2" data-name="Camada 2"><g id="Camada_1-2" data-name="Camada 1"><g id="Grupo_296" data-name="Grupo 296"><rect id="Retângulo_151" data-name="Retângulo 151" class="cls-1" width="107.86" height="108.8" rx="15"/><g id="Grupo_295" data-name="Grupo 295"><g id="Grupo_276" data-name="Grupo 276"><g id="Grupo_271" data-name="Grupo 271"><path id="Retângulo_152" data-name="Retângulo 152" class="cls-2" d="M36.41,31.77h0a3.87,3.87,0,0,1,3.87,3.87h0V55H32.54V35.64a3.87,3.87,0,0,1,3.87-3.87Z"/><path id="Retângulo_153" data-name="Retângulo 153" class="cls-2" d="M55.76,31.77h0a3.88,3.88,0,0,1,3.88,3.87h0V55H51.89V35.64a3.87,3.87,0,0,1,3.87-3.87Z"/><path id="Retângulo_154" data-name="Retângulo 154" class="cls-2" d="M31.25,49.83h31a2.59,2.59,0,0,1,2.58,2.59h0A2.59,2.59,0,0,1,62.22,55h-31a2.59,2.59,0,0,1-2.59-2.58h0A2.59,2.59,0,0,1,31.25,49.83Z"/></g><path id="Retângulo_155" data-name="Retângulo 155" class="cls-2" d="M31.89,53.71H61.57V68.22a10,10,0,0,1-10,10H41.89a10,10,0,0,1-10-10V53.71Z"/><path id="Retângulo_156" data-name="Retângulo 156" class="cls-2" d="M39.63,74.35h14.2v6a3,3,0,0,1-3,3h-8.2a3,3,0,0,1-3-3v-6Z"/><path id="Caminho_209" data-name="Caminho 209" class="cls-3" d="M46.09,82.1S46,92.48,44.07,94s-2.61,1.86-6.24,2c-7.95,0-9.21.5-17.42,0-1.7-.1-5.29-.67-7-2-3.8-4.76-3.31-11.91-3.31-11.91H8s-.11,11.9,6.44,14c4.06,1.3,5,1.35,10.77,1.28,3,0,9.94-.07,14.75,0A8.45,8.45,0,0,0,46.1,95c2-2.52,1.84-12.9,1.84-12.9"/><circle id="Elipse_55" data-name="Elipse 55" class="cls-2" cx="9.31" cy="78.87" r="4.52"/><g id="Grupo_272" data-name="Grupo 272"><line id="Linha_63" data-name="Linha 63" class="cls-4" x1="46.41" y1="65.32" x2="46.41" y2="74.35"/><line id="Linha_67" data-name="Linha 67" class="cls-4" x1="47.52" y1="62.74" x2="47.52" y2="54.56"/><line id="Linha_64" data-name="Linha 64" class="cls-4" x1="51.57" y1="62.74" x2="46.41" y2="74.35"/><line id="Linha_66" data-name="Linha 66" class="cls-4" x1="41.89" y1="64.89" x2="47.05" y2="54.56"/><line id="Linha_65" data-name="Linha 65" class="cls-4" x1="47.52" y1="62.74" x2="51.39" y2="62.74"/><line id="Linha_68" data-name="Linha 68" class="cls-4" x1="46.41" y1="64.89" x2="41.89" y2="64.89"/></g></g><g id="Grupo_277" data-name="Grupo 277"><g id="Grupo_280" data-name="Grupo 280"><line id="Linha_90" data-name="Linha 90" class="cls-5" x1="77.84" y1="20.33" x2="77.93" y2="21.6"/><g id="Grupo_278" data-name="Grupo 278"><g id="Grupo_279" data-name="Grupo 279"><g id="Grupo_275" data-name="Grupo 275"><g id="Grupo_274" data-name="Grupo 274"><g id="Grupo_273" data-name="Grupo 273"><line id="Linha_69" data-name="Linha 69" class="cls-6" x1="59.41" y1="10.58" x2="64.61" y2="28.25"/><line id="Linha_72" data-name="Linha 72" class="cls-6" x1="62.81" y1="7.73" x2="78.75" y2="16.38"/><line id="Linha_70" data-name="Linha 70" class="cls-7" x1="64.61" y1="28.25" x2="72.53" y2="28.49"/><line id="Linha_71" data-name="Linha 71" class="cls-7" x1="78.75" y1="16.38" x2="78.18" y2="23.74"/><g id="Elipse_56" data-name="Elipse 56"><circle class="cls-2" cx="77.82" cy="27.9" r="6.65"/><circle class="cls-6" cx="77.82" cy="27.9" r="6.15"/></g><g id="Elipse_57" data-name="Elipse 57"><circle class="cls-2" cx="77.82" cy="27.9" r="3.69"/><circle class="cls-8" cx="77.82" cy="27.9" r="3.19"/></g><line id="Linha_73" data-name="Linha 73" class="cls-7" x1="59.41" y1="10.58" x2="66.06" y2="18.49"/><line id="Linha_74" data-name="Linha 74" class="cls-7" x1="62.81" y1="7.73" x2="69.45" y2="15.65"/><line id="Linha_75" data-name="Linha 75" class="cls-7" x1="64.36" y1="19.92" x2="66.06" y2="18.49"/><line id="Linha_89" data-name="Linha 89" class="cls-7" x1="69.45" y1="15.64" x2="71.15" y2="14.22"/><line id="Linha_78" data-name="Linha 78" class="cls-7" x1="64.36" y1="19.92" x2="67.21" y2="23.31"/><line id="Linha_79" data-name="Linha 79" class="cls-7" x1="70.59" y1="14.7" x2="73.43" y2="18.09"/><line id="Linha_80" data-name="Linha 80" class="cls-7" x1="68.91" y1="21.89" x2="67.21" y2="23.31"/><line id="Linha_81" data-name="Linha 81" class="cls-7" x1="73.43" y1="18.09" x2="72.3" y2="19.04"/><line id="Linha_82" data-name="Linha 82" class="cls-7" x1="68.91" y1="21.89" x2="71.76" y2="25.28"/><line id="Linha_83" data-name="Linha 83" class="cls-7" x1="72.3" y1="19.04" x2="75.15" y2="22.43"/><line id="Linha_84" data-name="Linha 84" class="cls-6" x1="75.3" y1="20.31" x2="77.39" y2="23.38"/><line id="Linha_85" data-name="Linha 85" class="cls-6" x1="77.09" y1="18.42" x2="76.89" y2="23.35"/><g id="Retângulo_157" data-name="Retângulo 157"><rect class="cls-2" x="73.69" y="16.13" width="3.83" height="5.43" transform="matrix(0.77, -0.64, 0.64, 0.77, 5.59, 53.04)"/><rect class="cls-6" x="74.19" y="16.63" width="2.83" height="4.43" transform="translate(5.59 53.04) rotate(-40.02)"/></g><rect id="Retângulo_158" data-name="Retângulo 158" class="cls-2" x="71.1" y="12.96" width="2.95" height="5.91" transform="translate(6.76 50.4) rotate(-40.02)"/><rect id="Retângulo_159" data-name="Retângulo 159" class="cls-2" x="73.92" y="12.93" width="3.03" height="6.65" transform="translate(17.96 67.75) rotate(-54.02)"/><path id="Caminho_230" data-name="Caminho 230" class="cls-2" d="M64.36,8.94l7.16,4-2.1,2.42Z"/><line id="Linha_86" data-name="Linha 86" class="cls-6" x1="72.87" y1="18.56" x2="75.72" y2="21.96"/><path id="Caminho_229" data-name="Caminho 229" class="cls-9" d="M67.09,11.28l8,3.9"/></g><path id="Caminho_231" data-name="Caminho 231" class="cls-6" d="M77.41,20.53l.57-4.2"/></g><g id="Retângulo_160" data-name="Retângulo 160"><rect class="cls-2" x="78.43" y="32.59" width="2.95" height="7.38" transform="translate(-7.46 28.02) rotate(-19.02)"/><rect class="cls-10" x="78.93" y="33.09" width="1.95" height="6.38" transform="matrix(0.95, -0.33, 0.33, 0.95, -7.46, 28.02)"/></g><g id="Retângulo_161" data-name="Retângulo 161"><rect class="cls-2" x="83.16" y="29.84" width="2.95" height="7.38" transform="translate(3.82 75.43) rotate(-49.01)"/><rect class="cls-11" x="83.66" y="30.34" width="1.95" height="6.38" transform="translate(3.82 75.43) rotate(-49.01)"/></g><g id="Caminho_210" data-name="Caminho 210"><path class="cls-2" d="M87.41,57.68a3.93,3.93,0,0,1-5-2.43L77.7,41.56A1.26,1.26,0,0,1,78.49,40l5-1.74a1.28,1.28,0,0,1,1.59.71,22.81,22.81,0,0,0,1.23,8.41,6.77,6.77,0,0,0,2.27,3.25,2.74,2.74,0,0,1,1.19,2.23C90.14,55.64,89.5,57,87.41,57.68Z"/><path class="cls-2" d="M78.65,40.42a.77.77,0,0,0-.48,1l4.72,13.68a3.44,3.44,0,0,0,4.36,2.13,2.88,2.88,0,0,0,1.8-1.35,5.38,5.38,0,0,0,.24-3,2.25,2.25,0,0,0-1-1.9,7.28,7.28,0,0,1-2.41-3.47A23.53,23.53,0,0,1,84.59,39a.76.76,0,0,0-.92-.33l-5,1.73m-.33-1,5-1.73a1.77,1.77,0,0,1,2.25,1.1,22.83,22.83,0,0,0,1.2,8.31c1.47,3.83,3.1,2.51,3.49,5.6s-.4,4.61-2.72,5.4a4.43,4.43,0,0,1-5.63-2.74L77.22,41.73A1.79,1.79,0,0,1,78.32,39.47Z"/></g><g id="Caminho_211" data-name="Caminho 211"><path class="cls-2" d="M88.83,33.06h0a1.26,1.26,0,0,1,1.79-.13l10.93,9.49a3.94,3.94,0,0,1,.38,5.55c-1.44,1.66-2.91,1.77-5.4.38a2.73,2.73,0,0,1-1.62-1.93,6.88,6.88,0,0,0-2.17-3.33A23.35,23.35,0,0,0,85.4,38.8a1.27,1.27,0,0,1-.06-1.73Z"/><path class="cls-2" d="M89.21,33.38l-3.49,4a.77.77,0,0,0,0,1,23.38,23.38,0,0,1,7.39,4.35,7.22,7.22,0,0,1,2.3,3.53,2.29,2.29,0,0,0,1.39,1.65,5.22,5.22,0,0,0,2.86.89,2.83,2.83,0,0,0,1.93-1.16,3.43,3.43,0,0,0-.34-4.84L90.29,33.31a.75.75,0,0,0-.56-.19.79.79,0,0,0-.52.26h0m-.76-.65a1.77,1.77,0,0,1,2.5-.18l10.92,9.5a4.42,4.42,0,0,1,.44,6.25c-1.6,1.84-3.31,2-6,.49s-.88-2.53-3.89-5.33a22.68,22.68,0,0,0-7.25-4.22,1.77,1.77,0,0,1-.18-2.5Z"/></g></g><line id="Linha_91" data-name="Linha 91" class="cls-5" x1="76.57" y1="20.42" x2="76.66" y2="21.69"/></g></g></g></g></g></g></g></g></svg>