<svg xmlns="http://www.w3.org/2000/svg" xmlns:xlink="http://www.w3.org/1999/xlink" viewBox="0 0 108 109">
  <defs>
    <linearGradient id="linear-gradient" x1="0.063" y1="1.38" x2="0.942" y2="-0.561" gradientUnits="objectBoundingBox">
      <stop offset="0" stop-color="#c77dff"/>
      <stop offset="0.146" stop-color="#9d4edd"/>
      <stop offset="0.318" stop-color="#7b2cbf"/>
      <stop offset="0.523" stop-color="#5a189a"/>
      <stop offset="0.808" stop-color="#3c096c"/>
      <stop offset="1" stop-color="#240046"/>
    </linearGradient>
    <clipPath id="clip-path">
      <rect id="Ret창ngulo_245" data-name="Ret창ngulo 245" width="94" height="101" transform="translate(3.398 -0.643)" fill="none"/>
    </clipPath>
  </defs>
  <g id="Grupo_381" data-name="Grupo 381" transform="translate(-37 -1164)">
    <g id="Grupo_382" data-name="Grupo 382">
      <g id="Grupo_378" data-name="Grupo 378" transform="translate(-3 1)">
        <rect id="Ret창ngulo_246" data-name="Ret창ngulo 246" width="108" height="109" rx="15" transform="translate(40 1163)" fill="url(#linear-gradient)"/>
      </g>
      <g id="Grupo_372" data-name="Grupo 372" transform="translate(40.602 1168.643)" clip-path="url(#clip-path)">
        <path id="Caminho_277" data-name="Caminho 277" d="M34.789,31.888h0a3.634,3.634,0,0,1,3.7,3.565h0V53.286h-7.4V35.454a3.634,3.634,0,0,1,3.7-3.566" transform="translate(-1.169 -2.651)" fill="#fff"/>
        <path id="Caminho_278" data-name="Caminho 278" d="M54.146,31.888h0a3.634,3.634,0,0,1,3.7,3.565h0V53.286h-7.4V35.454a3.634,3.634,0,0,1,3.7-3.566" transform="translate(-0.183 -2.651)" fill="#fff"/>
        <path id="Caminho_279" data-name="Caminho 279" d="M29.686,49.954H59.273a2.379,2.379,0,1,1,0,4.755H29.686a2.379,2.379,0,1,1,0-4.755" transform="translate(-0.996 -4.074)" fill="#fff"/>
        <path id="Caminho_280" data-name="Caminho 280" d="M38.189,74.472H51.75V80.03a2.816,2.816,0,0,1-2.866,2.764H41.055a2.816,2.816,0,0,1-2.866-2.764Z" transform="translate(-1.486 -6.006)" fill="#fff"/>
        <path id="Caminho_281" data-name="Caminho 281" d="M42.95,82.215s-.132,9.57-1.937,10.978-2.493,1.707-5.956,1.815c-7.6-.014-8.8.461-16.645,0-1.624-.092-5.057-.62-6.669-1.815C8.113,88.8,8.584,82.215,8.584,82.215H6.578s-.113,10.963,6.145,12.9c3.88,1.2,4.777,1.245,10.295,1.185,2.877-.031,9.5-.069,14.091,0A8.246,8.246,0,0,0,42.954,94.1c1.931-2.321,1.754-11.889,1.754-11.889" transform="translate(-0.074 -6.615)" fill="#fff"/>
        <path id="Caminho_282" data-name="Caminho 282" d="M42.95,82.215s-.132,9.57-1.937,10.978-2.493,1.707-5.956,1.815c-7.6-.014-8.8.461-16.645,0-1.624-.092-5.057-.62-6.669-1.815C8.113,88.8,8.584,82.215,8.584,82.215H6.578s-.113,10.963,6.145,12.9c3.88,1.2,4.777,1.245,10.295,1.185,2.877-.031,9.5-.069,14.091,0A8.246,8.246,0,0,0,42.954,94.1c1.931-2.321,1.754-11.889,1.754-11.889" transform="translate(-0.074 -6.615)" fill="none" stroke="#fff" stroke-width="1"/>
        <path id="Caminho_283" data-name="Caminho 283" d="M7.662,74.472a4.164,4.164,0,1,1,0,8.322,4.164,4.164,0,1,1,0-8.322" transform="translate(0.07 -6.006)" fill="#fff"/>
        <path id="Caminho_284" data-name="Caminho 284" d="M30.806,54.9V68.28a9.387,9.387,0,0,0,9.554,9.212h9.248a9.387,9.387,0,0,0,9.554-9.212V54.9ZM45.731,67.967l-1.908,3.561V65.313h-.007v-.848H41.1l2.114-3.527,2.111-3.531v6.142h2.581Z" transform="translate(-1.156 -4.464)" fill="#fff"/>
        <line id="Linha_114" data-name="Linha 114" x2="0.085" y2="1.172" transform="translate(73.207 18.699)" fill="none" stroke="#fff" stroke-miterlimit="4.002" stroke-width="1"/>
        <line id="Linha_115" data-name="Linha 115" x2="4.97" y2="16.284" transform="translate(55.598 9.715)" fill="none" stroke="#fff" stroke-miterlimit="4.002" stroke-width="1.001"/>
        <line id="Linha_116" data-name="Linha 116" x2="15.234" y2="7.972" transform="translate(58.84 7.09)" fill="none" stroke="#fff" stroke-miterlimit="4.002" stroke-width="1.001"/>
        <line id="Linha_117" data-name="Linha 117" x2="7.561" y2="0.219" transform="translate(60.568 25.999)" fill="none" stroke="#fff" stroke-linecap="round" stroke-miterlimit="4.002" stroke-width="1.001"/>
        <line id="Linha_118" data-name="Linha 118" x1="0.543" y2="6.781" transform="translate(73.532 15.062)" fill="none" stroke="#fff" stroke-linecap="round" stroke-miterlimit="4.002" stroke-width="1.001"/>
        <path id="Caminho_285" data-name="Caminho 285" d="M72,22.813a6.513,6.513,0,0,1,8.945.751,5.974,5.974,0,0,1-.779,8.626,6.511,6.511,0,0,1-8.945-.751A5.972,5.972,0,0,1,72,22.813" transform="translate(-2.894 -1.824)" fill="#fff"/>
        <path id="Caminho_286" data-name="Caminho 286" d="M72.325,23.206A6.022,6.022,0,0,1,80.6,23.9a5.523,5.523,0,0,1-.72,7.976,6.022,6.022,0,0,1-8.271-.695A5.523,5.523,0,0,1,72.325,23.206Z" transform="translate(-2.916 -1.863)" fill="none" stroke="#fff" stroke-miterlimit="4.002" stroke-width="1.001"/>
        <path id="Caminho_287" data-name="Caminho 287" d="M73.942,25.13a3.619,3.619,0,0,1,4.97.417,3.319,3.319,0,0,1-.433,4.792,3.619,3.619,0,0,1-4.97-.417,3.318,3.318,0,0,1,.433-4.792" transform="translate(-3.026 -2.056)" fill="#fff"/>
        <path id="Caminho_288" data-name="Caminho 288" d="M74.271,25.522a3.128,3.128,0,0,1,4.3.361,2.868,2.868,0,0,1-.375,4.142,3.127,3.127,0,0,1-4.3-.36A2.869,2.869,0,0,1,74.271,25.522Z" transform="translate(-3.048 -2.096)" fill="none" stroke="#463081" stroke-miterlimit="4.002" stroke-width="1.001"/>
        <line id="Linha_119" data-name="Linha 119" x2="6.352" y2="7.293" transform="translate(55.598 9.715)" fill="none" stroke="#fff" stroke-linecap="round" stroke-miterlimit="4.002" stroke-width="1.001"/>
        <line id="Linha_120" data-name="Linha 120" x2="6.352" y2="7.293" transform="translate(58.84 7.09)" fill="none" stroke="#fff" stroke-linecap="round" stroke-miterlimit="4.002" stroke-width="1.001"/>
        <line id="Linha_121" data-name="Linha 121" y1="1.315" x2="1.623" transform="translate(60.33 17.007)" fill="none" stroke="#fff" stroke-linecap="round" stroke-miterlimit="4.002" stroke-width="1.001"/>
        <line id="Linha_122" data-name="Linha 122" y1="1.315" x2="1.623" transform="translate(65.192 13.068)" fill="none" stroke="#fff" stroke-linecap="round" stroke-miterlimit="4.002" stroke-width="1.001"/>
        <line id="Linha_123" data-name="Linha 123" x2="2.722" y2="3.126" transform="translate(60.33 18.321)" fill="none" stroke="#fff" stroke-linecap="round" stroke-miterlimit="4.002" stroke-width="1.001"/>
        <line id="Linha_124" data-name="Linha 124" x2="2.722" y2="3.126" transform="translate(66.273 13.509)" fill="none" stroke="#fff" stroke-linecap="round" stroke-miterlimit="4.002" stroke-width="1.001"/>
        <line id="Linha_125" data-name="Linha 125" x1="1.62" y2="1.313" transform="translate(63.052 20.135)" fill="none" stroke="#fff" stroke-linecap="round" stroke-miterlimit="4.002" stroke-width="1.001"/>
        <line id="Linha_126" data-name="Linha 126" x1="1.081" y2="0.875" transform="translate(67.914 16.634)" fill="none" stroke="#fff" stroke-linecap="round" stroke-miterlimit="4.002" stroke-width="1.001"/>
        <line id="Linha_127" data-name="Linha 127" x2="2.722" y2="3.126" transform="translate(64.672 20.135)" fill="none" stroke="#fff" stroke-linecap="round" stroke-miterlimit="4.002" stroke-width="1.001"/>
        <line id="Linha_128" data-name="Linha 128" x2="2.722" y2="3.126" transform="translate(67.914 17.509)" fill="none" stroke="#fff" stroke-linecap="round" stroke-miterlimit="4.002" stroke-width="1.001"/>
        <line id="Linha_129" data-name="Linha 129" x2="2.001" y2="2.825" transform="translate(70.777 18.681)" fill="none" stroke="#fff" stroke-miterlimit="4.002" stroke-width="1.001"/>
        <line id="Linha_130" data-name="Linha 130" x1="0.193" y2="4.538" transform="translate(72.296 16.944)" fill="none" stroke="#fff" stroke-miterlimit="4.002" stroke-width="1.001"/>
        <path id="Caminho_294" data-name="Caminho 294" d="M0,0,3.6.064l.091,5.079-3.6-.064Z" transform="matrix(0.766, -0.643, 0.643, 0.766, 68.001, 16.551)" fill="#fff"/>
        <path id="Caminho_295" data-name="Caminho 295" d="M0,0,2.661.048l.074,4.143L.074,4.143Z" transform="translate(68.675 16.607) rotate(-40.021)" fill="none" stroke="#fff" stroke-width="1.001"/>
        <path id="Caminho_296" data-name="Caminho 296" d="M0,0,2.78.05l.1,5.525L.1,5.525Z" transform="matrix(0.766, -0.643, 0.643, 0.766, 65.279, 13.424)" fill="#fff"/>
        <path id="Caminho_297" data-name="Caminho 297" d="M0,0,2.825.049l.108,6.272L.108,6.272Z" transform="matrix(0.588, -0.809, 0.809, 0.588, 67.485, 14.275)" fill="#fff"/>
        <path id="Caminho_289" data-name="Caminho 289" d="M62.911,9.059l6.848,3.69-2.006,2.227Z" transform="translate(-2.589 -0.853)" fill="#fff"/>
        <line id="Linha_131" data-name="Linha 131" x2="2.722" y2="3.126" transform="translate(68.455 17.072)" fill="none" stroke="#fff" stroke-miterlimit="4.002" stroke-width="1.001"/>
        <line id="Linha_132" data-name="Linha 132" x2="7.642" y2="3.593" transform="translate(62.936 10.365)" fill="none" stroke="#fff" stroke-miterlimit="4.002" stroke-width="2.001"/>
        <line id="Linha_133" data-name="Linha 133" y1="3.872" x2="0.536" transform="translate(72.797 15.013)" fill="none" stroke="#fff" stroke-miterlimit="4.002" stroke-width="1.001"/>
        <path id="Caminho_298" data-name="Caminho 298" d="M0,0,2.811.031l.078,6.829L.078,6.829Z" transform="translate(72.698 30.621) rotate(-19.03)" fill="#fff"/>
        <path id="Caminho_299" data-name="Caminho 299" d="M0,0,1.858.021l.067,5.9L.067,5.9Z" transform="translate(73.305 30.907) rotate(-19.038)" fill="none" stroke="#fff" stroke-width="1.001"/>
        <path id="Caminho_300" data-name="Caminho 300" d="M0,0,2.764.05l.125,6.945L.125,6.945Z" transform="translate(76.113 29.653) rotate(-49.009)" fill="#fff"/>
        <path id="Caminho_301" data-name="Caminho 301" d="M0,0,1.828.033l.108,6L.108,6Z" transform="translate(76.787 29.607) rotate(-49.007)" fill="none" stroke="#fff" stroke-width="1"/>
        <path id="Caminho_290" data-name="Caminho 290" d="M85.529,56.262a3.8,3.8,0,0,1-4.774-2.243L76.249,41.414A1.164,1.164,0,0,1,77,39.923l4.8-1.6a1.232,1.232,0,0,1,1.515.649A20.434,20.434,0,0,0,84.5,46.723a6.3,6.3,0,0,0,2.167,3A2.513,2.513,0,0,1,87.8,51.772c.336,2.611-.28,3.828-2.274,4.49" transform="translate(-3.182 -3.154)" fill="#fff"/>
        <path id="Caminho_291" data-name="Caminho 291" d="M77.135,40.32a.706.706,0,0,0-.457.9L81.185,53.83a3.311,3.311,0,0,0,4.166,1.957,2.722,2.722,0,0,0,1.721-1.243,4.785,4.785,0,0,0,.235-2.754,2.087,2.087,0,0,0-.969-1.75,6.787,6.787,0,0,1-2.307-3.191,20.872,20.872,0,0,1-1.217-7.812.751.751,0,0,0-.876-.312Zm-.311-.871,4.8-1.6a1.71,1.71,0,0,1,2.152,1.012,20.307,20.307,0,0,0,1.145,7.655c1.4,3.531,2.965,2.311,3.332,5.158s-.382,4.248-2.593,4.982a4.273,4.273,0,0,1-5.382-2.528L75.775,41.524a1.619,1.619,0,0,1,1.049-2.076" transform="translate(-3.159 -3.114)" fill="#fff"/>
        <path id="Caminho_292" data-name="Caminho 292" d="M87.213,33.142h0a1.245,1.245,0,0,1,1.714-.116l10.436,8.744a3.535,3.535,0,0,1,.372,5.108c-1.382,1.535-2.783,1.631-5.168.354a2.552,2.552,0,0,1-1.545-1.783,6.243,6.243,0,0,0-2.076-3.06,22.2,22.2,0,0,0-7.007-3.954,1.143,1.143,0,0,1-.058-1.6Z" transform="translate(-3.512 -2.718)" fill="#fff"/>
        <path id="Caminho_293" data-name="Caminho 293" d="M87.551,33.405,84.22,37.1a.692.692,0,0,0-.027.9,22.626,22.626,0,0,1,7.056,4.011,6.733,6.733,0,0,1,2.206,3.256,2.116,2.116,0,0,0,1.321,1.521,5.26,5.26,0,0,0,2.737.821,2.756,2.756,0,0,0,1.838-1.073,3.085,3.085,0,0,0-.324-4.458L88.592,33.335a.758.758,0,0,0-1.04.07Zm-.721-.6a1.737,1.737,0,0,1,2.388-.161l10.436,8.744a3.981,3.981,0,0,1,.419,5.758c-1.533,1.7-3.16,1.847-5.761.454s-.845-2.332-3.714-4.908A22.034,22.034,0,0,0,83.666,38.8a1.593,1.593,0,0,1-.167-2.3Z" transform="translate(-3.49 -2.679)" fill="#fff"/>
        <line id="Linha_134" data-name="Linha 134" x2="0.085" y2="1.172" transform="translate(71.993 18.781)" fill="none" stroke="#fff" stroke-miterlimit="4.002" stroke-width="1"/>
      </g>
    </g>
  </g>
</svg>
