<svg xmlns="http://www.w3.org/2000/svg" xmlns:xlink="http://www.w3.org/1999/xlink" width="200" height="201.752" viewBox="0 0 200 201.752"><defs><linearGradient id="a" x1="0.063" y1="1.38" x2="0.942" y2="-0.561" gradientUnits="objectBoundingBox"><stop offset="0" stop-color="#c77dff"/><stop offset="0.146" stop-color="#9d4edd"/><stop offset="0.318" stop-color="#7b2cbf"/><stop offset="0.523" stop-color="#5a189a"/><stop offset="0.808" stop-color="#3c096c"/><stop offset="1" stop-color="#240046"/></linearGradient></defs><path d="M21.467,0H178.533A21.467,21.467,0,0,1,200,21.467V180.285a21.467,21.467,0,0,1-21.467,21.467H21.467A21.467,21.467,0,0,1,0,180.285V21.467A21.467,21.467,0,0,1,21.467,0Z" fill="url(#a)"/><g transform="translate(66.347 38.284)"><path d="M74.864,95.355c-1.046.45-1.969.843-2.889,1.244-2.821,1.229-5.116.663-6.32-1.563-1.163-2.152-.459-4.4,1.945-6.061,9.092-6.292,18.142-12.649,27.327-18.8,2.087-1.4,3.262-2.815,2.8-5.35-.1-.523.027-1.081-.026-1.615-.192-1.957.5-2.963,2.628-3.18a6.215,6.215,0,0,0,5.487-6.05,6.511,6.511,0,0,0-5.154-6.4,6.358,6.358,0,0,0-7.386,4.753c-.1.459,0,1.042-.255,1.374a16.584,16.584,0,0,1-1.788,1.8c-.533-.722-1.5-1.429-1.528-2.167-.175-5.341,5.241-9.958,10.73-9.309a9.754,9.754,0,0,1,8.726,8.492,9.931,9.931,0,0,1-6.182,10.531c-.692.293-1.728.974-1.727,1.473,0,1.544-.782,3.252,1.118,4.543,9.7,6.6,19.327,13.307,28.976,19.982,2.126,1.471,2.852,3.315,2.134,5.337a4.316,4.316,0,0,1-5.767,2.566c-1.249-.466-2.463-1.031-3.889-1.633-1.216,2.787-2.371,5.429-3.522,8.071-1.13,2.6-2.191,5.226-3.413,7.777a3.5,3.5,0,0,0,.2,3.568c5.932,10.79,10.961,21.986,13.886,33.976a160.308,160.308,0,0,1,2.7,16.728c.312,2.334-.392,2.885-2.738,2.886q-31.463.008-62.926-.007c-2.492,0-2.99-.476-2.866-2.988a84.936,84.936,0,0,1,6.3-27.883c3.138-7.732,6.9-15.206,10.326-22.824a4.055,4.055,0,0,0,.394-2.775c-2.134-5.244-4.441-10.416-6.7-15.608A7.014,7.014,0,0,0,74.864,95.355Zm55.509,69.364c-.554-3.6-.915-7-1.617-10.33-2.939-13.915-8.533-26.806-15.423-39.169a4.121,4.121,0,0,1-.226-4.133c3.086-6.889,6.047-13.834,9.042-20.764,1.249-2.892,1.236-2.9-1.615-4.244A25.5,25.5,0,0,1,78.3,86.1c-2.833,1.3-2.844,1.3-1.712,3.921,2.995,6.93,5.948,13.879,9.038,20.767a4.673,4.673,0,0,1-.238,4.689c-7.221,13.038-13.039,26.632-15.77,41.382-.471,2.543-.673,5.136-1.019,7.856ZM117.488,83.8c-.634-.474-1.149-.884-1.69-1.258-4.87-3.371-9.777-6.692-14.6-10.133a2.667,2.667,0,0,0-3.6.044c-4.889,3.461-9.845,6.829-14.768,10.241-.48.333-.91.741-1.423,1.163.3.5.512.91.774,1.287,1.653,2.38,1.728,2.4,4.38,1.235,3.574-1.567,7.169-3.092,10.712-4.725a4.6,4.6,0,0,1,4.224-.036c3.407,1.605,6.887,3.058,10.334,4.577,3.179,1.4,3.179,1.4,5.112-1.45C117.095,84.522,117.213,84.28,117.488,83.8Zm-6,6.074a39.962,39.962,0,0,1-5.368-2.423c-4.528-2.919-8.89-2.916-13.414.011a39.23,39.23,0,0,1-5.325,2.424C93.571,95.038,105.167,95.017,111.493,89.871Zm-38.928-.046c-1.231.852-2.353,1.579-3.407,2.394-.253.195-.281.68-.412,1.032.4.131.882.472,1.194.357,1.228-.45,2.4-1.043,3.7-1.627Zm52.72,2.224c1.257.563,2.38,1.13,3.554,1.551.332.119.817-.188,1.23-.3-.152-.4-.189-.947-.477-1.169-1.032-.8-2.148-1.483-3.367-2.3Z" transform="translate(-65.106 -43.962)" fill="#fff"/><path d="M134.544,170.046H68.6c.369-2.9.585-5.672,1.087-8.387C72.6,145.913,78.81,131.4,86.518,117.483a4.989,4.989,0,0,0,.254-5.005c-3.3-7.353-6.451-14.771-9.648-22.168-1.208-2.793-1.2-2.8,1.828-4.186a27.216,27.216,0,0,0,45.089-.027c3.044,1.438,3.058,1.444,1.724,4.531-3.2,7.4-6.358,14.811-9.652,22.165a4.4,4.4,0,0,0,.241,4.412c7.355,13.2,13.327,26.959,16.464,41.813C133.568,162.574,133.953,166.207,134.544,170.046Z" transform="translate(-67.193 -46.635)" fill="#fff"/></g></svg>