<svg xmlns="http://www.w3.org/2000/svg" viewBox="0 0 108.78 108.78"><defs><style>.cls-1{fill:#634092;}.cls-2{fill:#fff;}.cls-3{fill:none;stroke:#fff;}</style></defs><g id="Camada_2" data-name="Camada 2"><g id="Camada_1-2" data-name="Camada 1"><rect id="Retângulo_129" data-name="Retângulo 129" class="cls-1" width="108.78" height="108.78" rx="15"/><g id="Retângulo_131" data-name="Retângulo 131"><rect class="cls-2" x="13.16" y="83.77" width="83.6" height="8.8"/><rect class="cls-3" x="13.66" y="84.27" width="82.6" height="7.8"/></g><g id="Grupo_267" data-name="Grupo 267"><g id="Elipse_41" data-name="Elipse 41"><ellipse class="cls-2" cx="27.79" cy="62.87" rx="6.56" ry="1.26"/><ellipse class="cls-3" cx="27.79" cy="62.87" rx="6.06" ry="0.76"/></g><g id="Retângulo_132" data-name="Retângulo 132"><rect class="cls-2" x="26" y="62.87" width="3.58" height="22.25"/><rect class="cls-3" x="26.5" y="63.37" width="2.58" height="21.25"/></g></g><g id="Icon_ionic-ios-hammer" data-name="Icon ionic-ios-hammer"><path id="Caminho_206" data-name="Caminho 206" class="cls-2" d="M62.16,39.37a3.74,3.74,0,0,1,.62-.87l2.75-2.87a3.39,3.39,0,0,1,1-.73,3,3,0,0,1,3.51.68c1,1,2.71,2.81,5.87,6.11C82,48,90.6,55.85,95.69,60.36a2.65,2.65,0,0,1,.16,3.75h0L90,70.38a2.35,2.35,0,0,1-3.32.13,2.16,2.16,0,0,1-.25-.27C82,64.77,74.5,55.66,68.51,49.42c-3.07-3.19-4.8-5-5.77-6A3.61,3.61,0,0,1,62.16,39.37Z"/><path id="Caminho_207" data-name="Caminho 207" class="cls-2" d="M34.47,34.82l5.17-5.4a.82.82,0,0,1,.6-.25.86.86,0,0,1,.6.25h0a1.64,1.64,0,0,0,1.43.52,3,3,0,0,0,1.86-.77c1-1.09-.16-3.24.77-4.61a37.19,37.19,0,0,1,3.47-4.25A38.08,38.08,0,0,1,60.66,12a17.83,17.83,0,0,1,7.09-1.47c4,0,7.1,1.34,8.21,2.42.83.8,1.68,2.22.47,2.22l-.36,0a25.66,25.66,0,0,0-3.51-.24c-2.35,0-5.17.34-6.68,1.6-2.44,2.07-4.47,4.84-4.63,8.4-.12,2.66.51,4.46,2.8,7.19A1.31,1.31,0,0,1,64,33.76l-2.88,3a1.15,1.15,0,0,1-1.63.06l0,0c-2.1-2.14-3.31-3.19-4.69-3.58A6.53,6.53,0,0,0,52.82,33a8.09,8.09,0,0,0-3.53.72,1.91,1.91,0,0,0-.47.38,2.79,2.79,0,0,0,.08,3.78l.3.3a.9.9,0,0,1,0,1.24L44,44.8a.83.83,0,0,1-.6.26.79.79,0,0,1-.6-.26l-8.37-8.72A1,1,0,0,1,34.47,34.82Z"/></g></g></g></svg>