<svg xmlns="http://www.w3.org/2000/svg" xmlns:xlink="http://www.w3.org/1999/xlink" viewBox="0 0 108 109">
  <defs>
    <linearGradient id="linear-gradient" x1="0.063" y1="1.38" x2="0.942" y2="-0.561" gradientUnits="objectBoundingBox">
      <stop offset="0" stop-color="#c77dff"/>
      <stop offset="0.146" stop-color="#9d4edd"/>
      <stop offset="0.318" stop-color="#7b2cbf"/>
      <stop offset="0.523" stop-color="#5a189a"/>
      <stop offset="0.808" stop-color="#3c096c"/>
      <stop offset="1" stop-color="#240046"/>
    </linearGradient>
  </defs>
  <g id="Grupo_376" data-name="Grupo 376" transform="translate(-160 -1001)">
    <rect id="Retângulo_224" data-name="Retângulo 224" width="108" height="109" rx="15" transform="translate(160 1001)" fill="url(#linear-gradient)"/>
    <g id="Retângulo_131" data-name="Retângulo 131" transform="translate(172.853 1085.771)" fill="#fff" stroke="#fff" stroke-width="1">
      <rect width="83.6" height="8.8" stroke="none"/>
      <rect x="0.5" y="0.5" width="82.6" height="7.8" fill="none"/>
    </g>
    <g id="Elipse_41" data-name="Elipse 41" transform="translate(180.92 1063.615)" fill="#fff" stroke="#fff" stroke-width="1">
      <ellipse cx="6.56" cy="1.257" rx="6.56" ry="1.257" stroke="none"/>
      <ellipse cx="6.56" cy="1.257" rx="6.06" ry="0.757" fill="none"/>
    </g>
    <g id="Retângulo_132" data-name="Retângulo 132" transform="translate(185.691 1064.872)" fill="#fff" stroke="#fff" stroke-width="1">
      <rect width="3.578" height="22.254" stroke="none"/>
      <rect x="0.5" y="0.5" width="2.578" height="21.254" fill="none"/>
    </g>
    <path id="Caminho_206" data-name="Caminho 206" d="M3.748,20a3.883,3.883,0,0,1,.614-.869L7.12,16.256a3.267,3.267,0,0,1,.989-.727,3.032,3.032,0,0,1,3.507.679c.959,1,2.713,2.812,5.875,6.113,6.055,6.319,14.7,14.154,19.782,18.672a2.649,2.649,0,0,1,.165,3.744L31.563,51.01A2.345,2.345,0,0,1,28,50.868C23.59,45.4,16.082,36.287,10.1,30.047c-3.072-3.191-4.8-5.023-5.77-6.034A3.6,3.6,0,0,1,3.748,20Z" transform="translate(218.106 1021.37)" fill="#fff"/>
    <path id="Caminho_207" data-name="Caminho 207" d="M12.777,28.843l5.17-5.4a.8.8,0,0,1,.6-.253.827.827,0,0,1,.6.253h0a1.665,1.665,0,0,0,1.439.521,3.117,3.117,0,0,0,1.858-.774c1.049-1.09-.165-3.238.764-4.613a38.039,38.039,0,0,1,3.477-4.249A38.166,38.166,0,0,1,38.974,5.969,17.815,17.815,0,0,1,46.062,4.5c3.971,0,7.1,1.343,8.213,2.417.824.806,1.678,2.227.465,2.227a3.3,3.3,0,0,1-.36-.032,23.932,23.932,0,0,0-3.507-.237c-2.353,0-5.17.332-6.684,1.6-2.443,2.069-4.466,4.834-4.631,8.4-.12,2.654.51,4.455,2.8,7.188a1.3,1.3,0,0,1-.06,1.722l-2.877,3.033a1.155,1.155,0,0,1-1.678.016c-2.1-2.148-3.312-3.191-4.691-3.586a6.961,6.961,0,0,0-1.918-.253,8.111,8.111,0,0,0-3.537.727,2.06,2.06,0,0,0-.465.379,2.789,2.789,0,0,0,.075,3.775l.3.3a.911.911,0,0,1,0,1.248l-5.17,5.4a.8.8,0,0,1-.6.253.827.827,0,0,1-.6-.253l-8.362-8.72A.964.964,0,0,1,12.777,28.843Z" transform="translate(181.381 1007.977)" fill="#fff"/>
  </g>
</svg>
