<svg xmlns="http://www.w3.org/2000/svg" xmlns:xlink="http://www.w3.org/1999/xlink" viewBox="0 0 108 109">
  <defs>
    <linearGradient id="linear-gradient" x1="0.063" y1="1.38" x2="0.942" y2="-0.561" gradientUnits="objectBoundingBox">
      <stop offset="0" stop-color="#c77dff"/>
      <stop offset="0.146" stop-color="#9d4edd"/>
      <stop offset="0.318" stop-color="#7b2cbf"/>
      <stop offset="0.523" stop-color="#5a189a"/>
      <stop offset="0.808" stop-color="#3c096c"/>
      <stop offset="1" stop-color="#240046"/>
    </linearGradient>
  </defs>
  <g id="Grupo_377" data-name="Grupo 377" transform="translate(-283 -1002)">
    <rect id="Retângulo_232" data-name="Retângulo 232" width="108" height="109" rx="15" transform="translate(283 1002)" fill="url(#linear-gradient)"/>
    <g id="Grupo_367" data-name="Grupo 367" transform="translate(-0.611 -1.422)">
      <g id="Retângulo_133" data-name="Retângulo 133" transform="translate(313.528 1025.505)" fill="#fff" stroke="#fff" stroke-width="1">
        <rect width="52.037" height="15.138" rx="3" stroke="none"/>
        <rect x="0.5" y="0.5" width="51.037" height="14.138" rx="2.5" fill="none"/>
      </g>
      <g id="Retângulo_134" data-name="Retângulo 134" transform="translate(367.232 1029.285)" fill="#fff" stroke="#fff" stroke-width="1">
        <path d="M0,0H0A1.892,1.892,0,0,1,1.892,1.892V5.677A1.892,1.892,0,0,1,0,7.569H0a0,0,0,0,1,0,0V0A0,0,0,0,1,0,0Z" stroke="none"/>
        <path d="M.5.5h0a.892.892,0,0,1,.892.892V6.177A.892.892,0,0,1,.5,7.069h0a0,0,0,0,1,0,0V.5A0,0,0,0,1,.5.5Z" fill="none"/>
      </g>
      <line id="Linha_36" data-name="Linha 36" x1="3.877" transform="translate(310.047 1033.058)" fill="none" stroke="#fff" stroke-linecap="round" stroke-width="1.5"/>
      <line id="Linha_37" data-name="Linha 37" y2="10.535" transform="translate(310.047 1033.058)" fill="none" stroke="#fff" stroke-linecap="round" stroke-width="1.5"/>
      <path id="Caminho_208" data-name="Caminho 208" d="M-.237-.138l.192-.237L29.7,4.234" transform="translate(310.283 1043.945)" fill="none" stroke="#fff" stroke-width="1.2"/>
      <line id="Linha_39" data-name="Linha 39" y1="6.321" transform="translate(339.982 1048.166)" fill="none" stroke="#fff" stroke-linecap="round" stroke-width="1"/>
      <g id="Grupo_369" data-name="Grupo 369">
        <g id="Retângulo_135" data-name="Retângulo 135" transform="translate(334.715 1054.428)" fill="#fff" stroke="#fff" stroke-width="1">
          <rect width="10.535" height="32.657" rx="3" stroke="none"/>
          <rect x="0.5" y="0.5" width="9.535" height="31.657" rx="2.5" fill="none"/>
        </g>
        <g id="Elipse_42" data-name="Elipse 42" transform="translate(337.144 1080.094)" fill="none" stroke="#7b2cbf" stroke-width="1">
          <circle cx="2.838" cy="2.838" r="2.838" stroke="none"/>
          <circle cx="2.838" cy="2.838" r="2.338" fill="none"/>
        </g>
      </g>
    </g>
  </g>
</svg>
