<svg xmlns="http://www.w3.org/2000/svg" viewBox="0 0 107.86 108.54"><defs><style>.cls-1{fill:#634092;}.cls-2,.cls-7{fill:#fff;}.cls-3,.cls-4,.cls-5,.cls-6{fill:none;stroke:#fff;}.cls-4,.cls-6{stroke-linecap:round;}.cls-4{stroke-width:1.5px;}.cls-5{stroke-width:1.2px;}.cls-7{stroke:#634092;}</style></defs><g id="Camada_2" data-name="Camada 2"><g id="Camada_1-2" data-name="Camada 1"><g id="Grupo_293" data-name="Grupo 293"><g id="Grupo_292" data-name="Grupo 292"><rect id="Retângulo_130" data-name="Retângulo 130" class="cls-1" width="107.86" height="108.54" rx="15"/><g id="Retângulo_133" data-name="Retângulo 133"><rect class="cls-2" x="30.51" y="22.43" width="52.04" height="15.14" rx="3"/><rect class="cls-3" x="31.01" y="22.93" width="51.04" height="14.14" rx="2.5"/></g><g id="Retângulo_134" data-name="Retângulo 134"><path class="cls-2" d="M84.21,26.21h0A1.89,1.89,0,0,1,86.1,28.1h0v3.79a1.89,1.89,0,0,1-1.89,1.89h0V26.21Z"/><path class="cls-3" d="M84.71,26.71h0a.89.89,0,0,1,.89.89v4.79a.89.89,0,0,1-.89.89h0V26.71Z"/></g><g id="Grupo_294" data-name="Grupo 294"><g id="Grupo_253" data-name="Grupo 253"><line id="Linha_36" data-name="Linha 36" class="cls-4" x1="30.9" y1="29.98" x2="27.02" y2="29.98"/><line id="Linha_37" data-name="Linha 37" class="cls-4" x1="27.02" y1="29.98" x2="27.02" y2="40.52"/></g><path id="Caminho_208" data-name="Caminho 208" class="cls-5" d="M27,40.73l.2-.23L57,45.1"/><g id="Retângulo_135" data-name="Retângulo 135"><rect class="cls-2" x="51.69" y="51.35" width="10.53" height="32.66" rx="3"/><rect class="cls-3" x="52.19" y="51.85" width="9.53" height="31.66" rx="2.5"/></g><line id="Linha_39" data-name="Linha 39" class="cls-6" x1="56.96" y1="51.41" x2="56.96" y2="45.09"/></g></g><g id="Elipse_42" data-name="Elipse 42"><circle class="cls-2" cx="56.96" cy="78.59" r="2.84"/><circle class="cls-7" cx="56.96" cy="78.59" r="2.34"/></g></g></g></g></svg>