<svg xmlns="http://www.w3.org/2000/svg" viewBox="0 0 107.86 108.8"><defs><style>.cls-1{fill:#634092;}.cls-2{fill:#fff;}.cls-3,.cls-4,.cls-5,.cls-6{fill:none;}.cls-3,.cls-5,.cls-6{stroke:#634092;}.cls-6{stroke-linecap:round;}</style></defs><g id="Camada_2" data-name="Camada 2"><g id="Camada_1-2" data-name="Camada 1"><rect id="Retângulo_162" data-name="Retângulo 162" class="cls-1" width="107.86" height="108.8" rx="15"/><g id="Grupo_285" data-name="Grupo 285"><path id="Caminho_214" data-name="Caminho 214" class="cls-2" d="M26.88,17.68h54.9V90.5H26.88Z"/><g id="Grupo_282" data-name="Grupo 282"><g id="Polígono_3" data-name="Polígono 3"><path class="cls-2" d="M49.06,62.35l5-5a.49.49,0,0,1,.46-.13.47.47,0,0,1,.36.31L58,65.66a.5.5,0,0,1-.65.65l-8.12-3.14a.47.47,0,0,1-.31-.36A.49.49,0,0,1,49.06,62.35Z"/><path class="cls-1" d="M57.54,65.84l-3.13-8.12-5,5,8.12,3.13m.71.71a1,1,0,0,1-1.07.23l-8.12-3.14A1,1,0,0,1,48.71,62l5-5a1,1,0,0,1,1.64.35l3.14,8.12A1,1,0,0,1,58.25,66.55Z"/></g></g><g id="Grupo_284" data-name="Grupo 284"><g id="Grupo_283" data-name="Grupo 283"><path id="Caminho_213" data-name="Caminho 213" class="cls-2" d="M21.91,24.5,54.06,56.64l-6.15,6.15L15.76,30.65a4.35,4.35,0,0,1,6.15-6.15Z"/><path id="Caminho_212" data-name="Caminho 212" class="cls-3" d="M18.72,33.69,25,27.31"/><g id="Retângulo_165" data-name="Retângulo 165"><path class="cls-4" d="M22.71,24.1,55.25,56.64h0l-6.94,6.94h0L15.76,31a4.92,4.92,0,0,1,0-6.94h0a4.91,4.91,0,0,1,7,0Z"/><path class="cls-5" d="M22.35,24.45,54.54,56.64h0l-6.23,6.24h0L16.12,30.69a4.42,4.42,0,0,1,0-6.24h0a4.41,4.41,0,0,1,6.23,0Z"/></g></g></g><line id="Linha_92" data-name="Linha 92" class="cls-6" x1="57.57" y1="65.86" x2="58.69" y2="67.07"/><g id="Polígono_4" data-name="Polígono 4"><path class="cls-2" d="M72.29,18.47l8.6,10.62-11.82.78Z"/><path class="cls-1" d="M69.75,29.32l10.15-.67-7.39-9.12-2.76,9.79M68.4,30.41l3.67-13,9.82,12.12Z"/></g><g id="Polígono_5" data-name="Polígono 5"><path class="cls-1" d="M84.15,32.83,71,17.22l16.7-.71Z"/><path class="cls-1" d="M87.11,17l-15,.64,11.8,14.05L87.11,17M88.37,16l-4,18L70,16.77Z"/></g><line id="Linha_93" data-name="Linha 93" class="cls-6" x1="34.72" y1="33.93" x2="53.76" y2="33.93"/><line id="Linha_94" data-name="Linha 94" class="cls-6" x1="40.88" y1="41.77" x2="70.01" y2="41.77"/><line id="Linha_95" data-name="Linha 95" class="cls-6" x1="70.01" y1="49.61" x2="53.2" y2="49.61"/><line id="Linha_96" data-name="Linha 96" class="cls-6" x1="33.6" y1="49.61" x2="28.56" y2="49.61"/><line id="Linha_97" data-name="Linha 97" class="cls-6" x1="42.56" y1="73.38" x2="64.97" y2="73.38"/></g></g></g></svg>