<svg xmlns="http://www.w3.org/2000/svg" xmlns:xlink="http://www.w3.org/1999/xlink" viewBox="0 0 108 109">
  <defs>
    <linearGradient id="linear-gradient" x1="0.063" y1="1.38" x2="0.942" y2="-0.561" gradientUnits="objectBoundingBox">
      <stop offset="0" stop-color="#c77dff"/>
      <stop offset="0.146" stop-color="#9d4edd"/>
      <stop offset="0.318" stop-color="#7b2cbf"/>
      <stop offset="0.523" stop-color="#5a189a"/>
      <stop offset="0.808" stop-color="#3c096c"/>
      <stop offset="1" stop-color="#240046"/>
    </linearGradient>
  </defs>
  <g id="Grupo_379" data-name="Grupo 379" transform="translate(-160 -1164)">
    <rect id="Retângulo_234" data-name="Retângulo 234" width="108" height="109" rx="15" transform="translate(160 1164)" fill="url(#linear-gradient)"/>
    <path id="Caminho_214" data-name="Caminho 214" d="M0,0H45.492V12.074h9.3l.1,60.747H0Z" transform="translate(187.042 1181.424)" fill="#fff"/>
    <g id="Grupo_282" data-name="Grupo 282" transform="translate(207.79 1219.666)">
      <g id="Polígono_3" data-name="Polígono 3" transform="translate(15.248 8.085) rotate(135)" fill="#fff">
        <path d="M 8.592380523681641 10.93428325653076 L 1.536620378494263 10.93428325653076 C 1.364290356636047 10.93428325653076 1.211540341377258 10.85144329071045 1.117550373077393 10.70700263977051 C 1.023550391197205 10.56257343292236 1.009670376777649 10.38937282562256 1.079460382461548 10.23180294036865 L 4.607330322265625 2.266793012619019 C 4.729610443115234 1.990733027458191 4.988170146942139 1.969282984733582 5.064500331878662 1.969282984733582 C 5.140830516815186 1.969282984733582 5.39939022064209 1.990733027458191 5.521670341491699 2.266793012619019 L 9.04955005645752 10.23180294036865 C 9.119330406188965 10.38936328887939 9.105450630187988 10.56257343292236 9.011460304260254 10.70700263977051 C 8.917460441589355 10.85144329071045 8.764710426330566 10.93428325653076 8.592380523681641 10.93428325653076 Z" stroke="none"/>
        <path d="M 5.064500331878662 2.469283103942871 L 1.536862373352051 10.43428325653076 L 8.59237003326416 10.43428325653076 L 5.064500331878662 2.469283103942871 M 5.064500331878662 1.469283103942871 C 5.433815479278564 1.469283103942871 5.803130149841309 1.667622566223145 5.978830337524414 2.064303398132324 L 9.50670051574707 10.02931308746338 C 9.79955005645752 10.69046306610107 9.31549072265625 11.43428325653076 8.592380523681641 11.43428325653076 L 1.536620140075684 11.43428325653076 C 0.8135099411010742 11.43428325653076 0.3294506072998047 10.69046306610107 0.6222906112670898 10.02931308746338 L 4.15017032623291 2.064303398132324 C 4.325870513916016 1.667622566223145 4.69518518447876 1.469283103942871 5.064500331878662 1.469283103942871 Z" stroke="none" fill="#7b2cbf"/>
      </g>
    </g>
    <g id="Grupo_284" data-name="Grupo 284" transform="translate(172.46 1184.371)">
      <g id="Grupo_283" data-name="Grupo 283">
        <path id="Caminho_213" data-name="Caminho 213" d="M4.348,0H49.809V8.7H4.348a4.348,4.348,0,0,1,0-8.7Z" transform="translate(6.546 0.792) rotate(45)" fill="#fff"/>
        <path id="Caminho_212" data-name="Caminho 212" d="M0,6.375,6.266,0" transform="translate(6.428 6.685)" fill="none" stroke="#7b2cbf" stroke-width="1"/>
        <g id="Retângulo_165" data-name="Retângulo 165" transform="translate(6.942) rotate(45)" fill="none" stroke="#7b2cbf" stroke-width="1">
          <path d="M4.909,0H50.93a0,0,0,0,1,0,0V9.817a0,0,0,0,1,0,0H4.909A4.909,4.909,0,0,1,0,4.909v0A4.909,4.909,0,0,1,4.909,0Z" stroke="none"/>
          <path d="M4.909.5H50.43a0,0,0,0,1,0,0V9.317a0,0,0,0,1,0,0H4.909A4.409,4.409,0,0,1,.5,4.909v0A4.409,4.409,0,0,1,4.909.5Z" fill="none"/>
        </g>
      </g>
    </g>
    <line id="Linha_92" data-name="Linha 92" x2="1.12" y2="1.214" transform="translate(217.739 1229.598)" fill="none" stroke="#7b2cbf" stroke-linecap="round" stroke-width="1"/>
    <path id="Caminho_273" data-name="Caminho 273" d="M4.957,3l8.858,7.173L-.437,9.657Z" transform="translate(234.035 1198.562) rotate(-129)" fill="#fff"/>
    <line id="Linha_93" data-name="Linha 93" x2="19.045" transform="translate(194.885 1197.669)" fill="none" stroke="#7b2cbf" stroke-linecap="round" stroke-width="1"/>
    <line id="Linha_94" data-name="Linha 94" x2="29.128" transform="translate(201.046 1205.511)" fill="none" stroke="#7b2cbf" stroke-linecap="round" stroke-width="1"/>
    <line id="Linha_95" data-name="Linha 95" x1="16.805" transform="translate(213.37 1213.353)" fill="none" stroke="#7b2cbf" stroke-linecap="round" stroke-width="1"/>
    <line id="Linha_96" data-name="Linha 96" x1="5.041" transform="translate(188.723 1213.353)" fill="none" stroke="#7b2cbf" stroke-linecap="round" stroke-width="1"/>
    <line id="Linha_97" data-name="Linha 97" x2="22.406" transform="translate(202.727 1237.124)" fill="none" stroke="#7b2cbf" stroke-linecap="round" stroke-width="1"/>
  </g>
</svg>
