<svg xmlns="http://www.w3.org/2000/svg" xmlns:xlink="http://www.w3.org/1999/xlink" width="200" height="201.752" viewBox="0 0 200 201.752"><defs><linearGradient id="a" x1="0.063" y1="1.38" x2="0.942" y2="-0.561" gradientUnits="objectBoundingBox"><stop offset="0" stop-color="#c77dff"/><stop offset="0.146" stop-color="#9d4edd"/><stop offset="0.318" stop-color="#7b2cbf"/><stop offset="0.523" stop-color="#5a189a"/><stop offset="0.808" stop-color="#3c096c"/><stop offset="1" stop-color="#240046"/></linearGradient></defs><g transform="translate(-1967.976 -1995.925)"><rect width="200" height="201.752" rx="15" transform="translate(1967.976 1995.925)" fill="url(#a)"/><g transform="translate(1991.285 2153.74)" fill="#fff" stroke="#fff" stroke-width="1"><rect width="155.752" height="15.959" stroke="none"/><rect x="0.5" y="0.5" width="154.752" height="14.959" fill="none"/></g><g transform="translate(2006.828 2111.876)" fill="#fff" stroke="#fff" stroke-width="1"><ellipse cx="11.895" cy="2.28" rx="11.895" ry="2.28" stroke="none"/><ellipse cx="11.895" cy="2.28" rx="11.395" ry="1.78" fill="none"/></g><g transform="translate(2015.585 2114.762)" fill="#fff" stroke="#fff" stroke-width="1"><rect width="6.488" height="40.356" stroke="none"/><rect x="0.5" y="0.5" width="5.488" height="39.356" fill="none"/></g><path d="M4.042,23.871A7.042,7.042,0,0,1,5.156,22.3l5-5.214a5.924,5.924,0,0,1,1.794-1.318A5.5,5.5,0,0,1,18.31,17c1.739,1.8,4.919,5.1,10.653,11.086,10.979,11.459,26.66,25.667,35.873,33.86a4.8,4.8,0,0,1,.3,6.789L54.482,80.1a4.253,4.253,0,0,1-6.468-.258c-7.99-9.912-21.606-26.441-32.449-37.756C9.994,36.3,6.868,32.98,5.1,31.147A6.536,6.536,0,0,1,4.042,23.871Z" transform="translate(2080.251 2047.271)" fill="#fff"/><path d="M12.969,48.645l9.376-9.8a1.457,1.457,0,0,1,1.087-.458,1.5,1.5,0,0,1,1.087.458h0a3.019,3.019,0,0,0,2.609.945,5.652,5.652,0,0,0,3.37-1.4c1.9-1.977-.3-5.873,1.386-8.365a68.981,68.981,0,0,1,6.305-7.706A69.212,69.212,0,0,1,60.474,7.164,32.307,32.307,0,0,1,73.329,4.5c7.2,0,12.882,2.435,14.893,4.383,1.495,1.461,3.044,4.039.842,4.039a5.989,5.989,0,0,1-.652-.057,43.4,43.4,0,0,0-6.359-.43c-4.267,0-9.376.6-12.121,2.893-4.43,3.753-8.1,8.766-8.4,15.24-.217,4.813.924,8.078,5.082,13.034a2.358,2.358,0,0,1-.109,3.122l-5.218,5.5a2.1,2.1,0,0,1-3.044.029c-3.8-3.9-6.006-5.787-8.506-6.5a12.623,12.623,0,0,0-3.479-.458,14.708,14.708,0,0,0-6.414,1.318A3.736,3.736,0,0,0,39,47.3a5.058,5.058,0,0,0,.136,6.847l.544.544a1.652,1.652,0,0,1,0,2.263l-9.376,9.8a1.457,1.457,0,0,1-1.087.458,1.5,1.5,0,0,1-1.087-.458L12.969,50.936A1.748,1.748,0,0,1,12.969,48.645Z" transform="translate(2019.11 2012.238)" fill="#fff"/></g></svg>