<svg xmlns="http://www.w3.org/2000/svg" xmlns:xlink="http://www.w3.org/1999/xlink" viewBox="0 0 108 109">
  <defs>
    <linearGradient id="linear-gradient" x1="0.063" y1="1.38" x2="0.942" y2="-0.561" gradientUnits="objectBoundingBox">
      <stop offset="0" stop-color="#c77dff"/>
      <stop offset="0.146" stop-color="#9d4edd"/>
      <stop offset="0.318" stop-color="#7b2cbf"/>
      <stop offset="0.523" stop-color="#5a189a"/>
      <stop offset="0.808" stop-color="#3c096c"/>
      <stop offset="1" stop-color="#240046"/>
    </linearGradient>
  </defs>
  <g id="Grupo_375" data-name="Grupo 375" transform="translate(-37 -1002)">
    <rect id="Retângulo_11" data-name="Retângulo 11" width="108" height="109" rx="15" transform="translate(37 1002)" fill="url(#linear-gradient)"/>
    <g id="Caminho_124" data-name="Caminho 124" transform="matrix(0.799, -0.602, 0.602, 0.799, 78.807, 1018.226)" fill="#fff">
      <path d="M 6.474074363708496 14.06665802001953 L 1.618514180183411 14.06665802001953 C 1.001764178276062 14.06665802001953 0.5000042319297791 13.56488800048828 0.5000042319297791 12.94813823699951 L 0.5000042319297791 4.855547904968262 C 0.5000042319297791 4.518988132476807 0.638704240322113 3.49482798576355 0.8991242051124573 2.447257995605469 C 1.272638916969299 0.944770872592926 1.592509388923645 0.5728042125701904 1.671813488006592 0.4999980628490448 L 6.420774936676025 0.4999980628490448 C 6.500079154968262 0.5728042125701904 6.819949626922607 0.944770872592926 7.193464279174805 2.447257995605469 C 7.453884124755859 3.49482798576355 7.592584133148193 4.518988132476807 7.592584133148193 4.855547904968262 L 7.592584133148193 12.94813823699951 C 7.592584133148193 13.56488800048828 7.090824127197266 14.06665802001953 6.474074363708496 14.06665802001953 Z" stroke="none"/>
      <path d="M 1.925638675689697 0.9999980926513672 C 1.808041572570801 1.210175514221191 1.587036609649658 1.703409194946289 1.340723991394043 2.74811840057373 C 1.118414402008057 3.691027641296387 1.000004291534424 4.577877998352051 1.000004291534424 4.855547904968262 L 1.000004291534424 12.94813823699951 C 1.000004291534424 13.28918838500977 1.277464389801025 13.56665802001953 1.618514060974121 13.56665802001953 L 6.474074363708496 13.56665802001953 C 6.815124034881592 13.56665802001953 7.092584133148193 13.28918838500977 7.092584133148193 12.94813823699951 L 7.092584133148193 4.855547904968262 C 7.092584133148193 4.577877998352051 6.974174499511719 3.691027641296387 6.751864433288574 2.74811840057373 C 6.505551815032959 1.703409194946289 6.284546852111816 1.210175514221191 6.16694974899292 0.9999980926513672 L 1.925638675689697 0.9999980926513672 M 1.618514060974121 -1.9073486328125e-06 L 6.474074363708496 -1.9073486328125e-06 C 7.367954254150391 -1.9073486328125e-06 8.092584609985352 3.961668014526367 8.092584609985352 4.855547904968262 L 8.092584609985352 12.94813823699951 C 8.092584609985352 13.84201812744141 7.367954254150391 14.56665802001953 6.474074363708496 14.56665802001953 L 1.618514060974121 14.56665802001953 C 0.7246341705322266 14.56665802001953 3.814697265625e-06 13.84201812744141 3.814697265625e-06 12.94813823699951 L 3.814697265625e-06 4.855547904968262 C 3.814697265625e-06 3.961668014526367 0.7246341705322266 -1.9073486328125e-06 1.618514060974121 -1.9073486328125e-06 Z" stroke="none" fill="#fff"/>
    </g>
    <g id="Grupo_247" data-name="Grupo 247" transform="translate(53.296 1045.303)">
      <ellipse id="Elipse_36" data-name="Elipse 36" cx="20.886" cy="20.926" rx="20.886" ry="20.926" transform="translate(4.277 4.292)" fill="#fff"/>
      <ellipse id="Elipse_35" data-name="Elipse 35" cx="13.911" cy="13.951" rx="13.911" ry="13.951" transform="translate(11.252 11.267)" fill="#7b2cbf"/>
      <rect id="Retângulo_118" data-name="Retângulo 118" width="9.841" height="9.841" rx="2" transform="translate(20.242)" fill="#fff"/>
      <rect id="Retângulo_119" data-name="Retângulo 119" width="9.841" height="9.841" rx="2" transform="translate(20.242 40.594)" fill="#fff"/>
      <rect id="Retângulo_120" data-name="Retângulo 120" width="10.315" height="10.315" rx="2" transform="translate(41.144 28.588) rotate(30)" fill="#fff"/>
      <rect id="Retângulo_122" data-name="Retângulo 122" width="10.315" height="10.315" rx="2" transform="translate(43.031 6.772) rotate(45)" fill="#fff"/>
      <rect id="Retângulo_121" data-name="Retângulo 121" width="10.315" height="10.315" rx="2" transform="translate(9.182 28.588) rotate(60)" fill="#fff"/>
      <rect id="Retângulo_123" data-name="Retângulo 123" width="10.315" height="10.315" rx="2" transform="translate(7.294 6.772) rotate(45)" fill="#fff"/>
      <circle id="Elipse_37" data-name="Elipse 37" cx="11.414" cy="11.414" r="11.414" transform="translate(13.748 13.803)" fill="#fff"/>
    </g>
    <path id="Caminho_269" data-name="Caminho 269" d="M53.518,53.877l-16.023-19.6a7.268,7.268,0,0,1-7.038-8.61l-.781-.955L17.411,33.966l.662,1a7.283,7.283,0,0,1,6.616,9.951L38.656,65.92a4,4,0,0,0,5.626.59L52.929,59.5a4,4,0,0,0,.589-5.626" transform="translate(78.807 1013.356)" fill="#fff"/>
    <path id="Caminho_270" data-name="Caminho 270" d="M41.787,61.657h0a.961.961,0,0,1-1.341-.223L29.22,45.728a.961.961,0,0,1,1.564-1.118L42.01,60.316a.961.961,0,0,1-.223,1.341" transform="translate(78.807 1013.356)" fill="#7b2cbf"/>
    <path id="Caminho_271" data-name="Caminho 271" d="M49.257,56.077h0a.961.961,0,0,1-1.341-.223L36.69,40.148a.961.961,0,0,1,1.564-1.118L49.48,54.736a.961.961,0,0,1-.223,1.341" transform="translate(78.807 1013.356)" fill="#7b2cbf"/>
    <path id="Caminho_272" data-name="Caminho 272" d="M45.747,58.957h0a.961.961,0,0,1-1.341-.223L33.18,43.028a.961.961,0,1,1,1.564-1.118L45.97,57.616a.961.961,0,0,1-.223,1.341" transform="translate(78.807 1013.356)" fill="#7b2cbf"/>
    <rect id="Retângulo_230" data-name="Retângulo 230" width="5.213" height="21.188" transform="translate(87.685 1027.395) rotate(-37.439)" fill="#fff"/>
    <rect id="Retângulo_231" data-name="Retângulo 231" width="54.41" height="67.402" transform="translate(78.807 1013.356)" fill="none"/>
  </g>
</svg>
