<svg xmlns="http://www.w3.org/2000/svg" viewBox="0 0 107.66 108.78"><defs><style>.cls-1,.cls-4{fill:#634092;}.cls-2,.cls-6{fill:#fff;}.cls-3,.cls-5,.cls-7{fill:none;}.cls-3,.cls-4,.cls-5{stroke:#fff;}.cls-3,.cls-4{stroke-miterlimit:4;}.cls-6,.cls-7{stroke:#634092;}.cls-6{stroke-miterlimit:10;}</style></defs><g id="Camada_2" data-name="Camada 2"><g id="Camada_1-2" data-name="Camada 1"><rect id="Retângulo_128" data-name="Retângulo 128" class="cls-1" width="107.66" height="108.78" rx="15"/><g id="Grupo_249" data-name="Grupo 249"><g id="Retângulo_124" data-name="Retângulo 124"><rect class="cls-2" x="56.35" y="20.87" width="4.86" height="24.56" transform="translate(-8.12 42.04) rotate(-37)"/><rect class="cls-3" x="56.85" y="21.37" width="3.86" height="23.56" transform="translate(-8.12 42.04) rotate(-37)"/></g><g id="Caminho_124" data-name="Caminho 124"><path class="cls-2" d="M54,22.78l-3.88,2.93a1.12,1.12,0,0,1-1.56-.22L43.68,19a14.47,14.47,0,0,1-1.13-2.16,4.38,4.38,0,0,1-.55-2L45.79,12c.11,0,.59.11,1.79,1.09a13.16,13.16,0,0,1,1.77,1.68l4.87,6.47A1.11,1.11,0,0,1,54,22.78Z"/><path class="cls-2" d="M42.5,15.08a7.61,7.61,0,0,0,.59,1.75,13.33,13.33,0,0,0,1,1.89L49,25.18a.61.61,0,0,0,.86.13l3.88-2.93a.61.61,0,0,0,.12-.86L49,15.05a12.62,12.62,0,0,0-1.54-1.48,6.8,6.8,0,0,0-1.52-1L42.5,15.08m-.84-.61,3.87-2.93c.72-.53,3.68,2.19,4.22,2.91l4.87,6.46a1.61,1.61,0,0,1-.32,2.27l-3.88,2.93a1.62,1.62,0,0,1-2.26-.32l-4.87-6.47C42.75,18.61,40.94,15,41.66,14.47Z"/></g></g><g id="Grupo_251" data-name="Grupo 251"><g id="Caminho_120" data-name="Caminho 120"><path class="cls-2" d="M95.23,71.33l-10.35,7.8a2.19,2.19,0,0,1-2.39.2A7.24,7.24,0,0,1,79.84,77L59.31,47.08l12.17-9.16,23.08,28a7.23,7.23,0,0,1,1.52,3.19A2.19,2.19,0,0,1,95.23,71.33Z"/><path class="cls-2" d="M60,47.2,80.25,76.7a6.93,6.93,0,0,0,2.44,2.18,1.73,1.73,0,0,0,1.89-.15l10.35-7.8a1.71,1.71,0,0,0,.66-1.77,6.8,6.8,0,0,0-1.42-3L71.4,38.6,60,47.2M58.63,47l12.93-9.74L95,65.59c1.74,2.32,2.39,4.77.57,6.14l-10.35,7.8c-1.81,1.37-4,.07-5.74-2.24Z"/></g><g id="Elipse_38" data-name="Elipse 38"><circle class="cls-2" cx="79.62" cy="39.98" r="8.1"/><circle class="cls-4" cx="79.62" cy="40.9" r="7.6"/></g><g id="Elipse_39" data-name="Elipse 39"><circle class="cls-2" cx="59.63" cy="54.97" r="8.1"/><circle class="cls-4" cx="59.63" cy="54.97" r="7.6"/></g><path id="Caminho_122" data-name="Caminho 122" class="cls-1" d="M44.83,53.94l14-8.12L78.66,76.76c1.45,2.51,1.8,5-.17,6.16L67.3,89.42c-2,1.15-4-.4-5.44-2.91Z"/><path id="Caminho_123" data-name="Caminho 123" class="cls-1" d="M69.41,35.33l10.72-10,24.64,24.27c1.86,2,2.73,4.21,1.22,5.61l-8.57,8c-1.51,1.4-3.65.38-5.51-1.62Z"/><g id="Grupo_247" data-name="Grupo 247"><ellipse id="Elipse_36" data-name="Elipse 36" class="cls-2" cx="41.46" cy="68.52" rx="20.89" ry="20.93"/><g id="Elipse_35" data-name="Elipse 35"><ellipse class="cls-2" cx="41.46" cy="68.52" rx="13.91" ry="13.95"/><ellipse class="cls-5" cx="41.46" cy="68.52" rx="13.41" ry="13.45"/></g><rect id="Retângulo_118" data-name="Retângulo 118" class="cls-2" x="36.54" y="43.31" width="9.84" height="9.84" rx="2"/><rect id="Retângulo_119" data-name="Retângulo 119" class="cls-2" x="36.54" y="83.9" width="9.84" height="9.84" rx="2"/><rect id="Retângulo_120" data-name="Retângulo 120" class="cls-2" x="54.17" y="73.78" width="10.31" height="10.31" rx="2" transform="translate(-38.7 90.85) rotate(-60)"/><rect id="Retângulo_122" data-name="Retângulo 122" class="cls-2" x="54.17" y="52.21" width="10.31" height="10.31" rx="2" transform="translate(-23.19 58.75) rotate(-45)"/><rect id="Retângulo_121" data-name="Retângulo 121" class="cls-2" x="18.43" y="73.78" width="10.31" height="10.31" rx="2" transform="translate(-36.31 22.37) rotate(-30)"/><rect id="Retângulo_123" data-name="Retângulo 123" class="cls-2" x="18.43" y="52.21" width="10.31" height="10.31" rx="2" transform="translate(-33.66 33.48) rotate(-45)"/><g id="Elipse_37" data-name="Elipse 37"><circle class="cls-6" cx="41.46" cy="68.52" r="11.41"/><circle class="cls-7" cx="41.46" cy="68.52" r="10.91"/></g></g><rect id="Retângulo_127" data-name="Retângulo 127" class="cls-1" x="84.05" y="49.45" width="2.02" height="21.53" rx="1.01" transform="translate(-19.08 63.97) rotate(-37.36)"/><rect id="Retângulo_148" data-name="Retângulo 148" class="cls-1" x="80.39" y="52.31" width="2.02" height="21.53" rx="1.01" transform="translate(-21.57 62.33) rotate(-37.36)"/><rect id="Retângulo_149" data-name="Retângulo 149" class="cls-1" x="76.73" y="55.17" width="2.02" height="21.53" rx="1.01" transform="translate(-24.06 60.7) rotate(-37.36)"/></g></g></g></svg>