<svg xmlns="http://www.w3.org/2000/svg" xmlns:xlink="http://www.w3.org/1999/xlink" width="200" height="201.752" viewBox="0 0 200 201.752"><defs><linearGradient id="a" x1="0.063" y1="1.38" x2="0.942" y2="-0.561" gradientUnits="objectBoundingBox"><stop offset="0" stop-color="#c77dff"/><stop offset="0.146" stop-color="#9d4edd"/><stop offset="0.318" stop-color="#7b2cbf"/><stop offset="0.523" stop-color="#5a189a"/><stop offset="0.808" stop-color="#3c096c"/><stop offset="1" stop-color="#240046"/></linearGradient></defs><path d="M21.467,0H178.533A21.467,21.467,0,0,1,200,21.467V180.285a21.467,21.467,0,0,1-21.467,21.467H21.467A21.467,21.467,0,0,1,0,180.285V21.467A21.467,21.467,0,0,1,21.467,0Z" fill="url(#a)"/><g transform="translate(34.308 43.497)"><path d="M42.266,8.879V39.532L24.75,22.016V8.879A4.379,4.379,0,0,1,29.129,4.5h8.758A4.379,4.379,0,0,1,42.266,8.879Z" transform="translate(67.218 2.442)" fill="#fff" fill-rule="evenodd"/><path d="M60.624,5.28a8.758,8.758,0,0,1,12.382,0l58.217,58.208a4.385,4.385,0,1,1-6.2,6.2l-58.2-58.216L8.608,69.685a4.385,4.385,0,0,1-6.2-6.2Z" transform="translate(-1.123 -2.716)" fill="#fff" fill-rule="evenodd"/><g transform="translate(18.866 18.609)"><path d="M52.71,7.79,6,51.957v51.981H36.768s-.02-10.3,0-23.972,31.5-13.752,31.682,0,0,23.972,0,23.972H99.421V51.7Z" transform="translate(-6 -7.79)" fill="#fff"/></g></g></svg>