<svg xmlns="http://www.w3.org/2000/svg" xmlns:xlink="http://www.w3.org/1999/xlink" width="261.305" height="104.841" viewBox="0 0 261.305 104.841">
  <defs>
    <clipPath id="clip-path">
      <rect id="Retângulo_58" data-name="Retângulo 58" width="261.305" height="104.841" fill="#fff"/>
    </clipPath>
  </defs>
  <g id="Grupo_92" data-name="Grupo 92" transform="translate(0 54)">
    <g id="Grupo_91" data-name="Grupo 91" transform="translate(0 -54)" clip-path="url(#clip-path)">
      <text id="by" transform="translate(0 20.903)" fill="#fff" font-size="25" font-family="SegoeUI, Segoe UI"><tspan x="0" y="0">by</tspan></text>
      <text id="_omen" data-name="   omen" transform="translate(36.888 89.291)" fill="#fff" font-size="63" font-family="SegoeUI, Segoe UI"><tspan x="0" y="0" xml:space="preserve">   omen</tspan></text>
      <path id="Caminho_42" data-name="Caminho 42" d="M207.795,247.391l-4.714,21.522q-.977,3.906-1.621,5.722a7.619,7.619,0,0,1-2.187,3.183,5.251,5.251,0,0,1-3.932,1.367,6.459,6.459,0,0,1-4.257-1.328,7.771,7.771,0,0,1-2.226-2.988c-.469-1.094-1.412-3.03-2.6-5.375l-8.795-17.373-8.836,17.3c-.918,2.5-1.885,4.241-2.315,5.374a7.433,7.433,0,0,1-2.246,3.047,6.4,6.4,0,0,1-4.257,1.347,7,7,0,0,1-3.535-.8,6.14,6.14,0,0,1-2.246-2.265,14.217,14.217,0,0,1-1.406-3.476q-.547-2.011-.976-3.73l-9.53-38.549a22.546,22.546,0,0,1-.859-5.116,5.03,5.03,0,0,1,1.562-3.75,5.321,5.321,0,0,1,3.867-1.523q3.164,0,4.257,2.031a22.958,22.958,0,0,1,1.914,5.9l7.5,33.433,7.412-14.406c1.332-2.318,1.948-3.588,2.7-5.08a9.473,9.473,0,0,1,2.421-3.242,7.031,7.031,0,0,1,4.57-1.367,6.666,6.666,0,0,1,4.55,1.426,7.794,7.794,0,0,1,2.246,3.105c.416,1.12,1.141,2.672,2.243,5.184l7.873,14.381,1.6-4.9a14.767,14.767,0,0,0,.676-2.282s5.92,3.191,11.148-6.765" transform="translate(-121.101 -188.591)" fill="#fff"/>
      <path id="Caminho_43" data-name="Caminho 43" d="M535.74,204.973s-4.322,1.487-6.861-1.972-18.709,2.439-20.643,8.769A26.036,26.036,0,0,1,516.4,206.8c4.372-1.453,4.168,1.686,3.463,3.338l.7.149,5.822,1.244s.662-1.874,1.737-2.147,4.533.636,5.037,1.667l-.079.246,2.585.71s2.487-4.084,2.23-5.871Z" transform="translate(-435.725 -173.16)" fill="#fff"/>
      <path id="Caminho_44" data-name="Caminho 44" d="M542.176,285.311l4.069-17.705a.849.849,0,0,0-.688-1.066l-4.621-.911a.938.938,0,0,0-1.078.6l-8.4,26.057s5.372,3.9,10.715-6.971" transform="translate(-455.636 -227.715)" fill="#fff"/>
    </g>
  </g>
</svg>
