<svg xmlns="http://www.w3.org/2000/svg" width="40" height="38" viewBox="0 0 44.954 38">
  <path id="iconmonstr-megaphone-10" d="M36.388,30.2a6.372,6.372,0,0,0,8.176-3.859,6.439,6.439,0,0,0-3.8-8.249L34.694,15.87,30.315,27.978,36.388,30.2ZM24.621,36.143a4.281,4.281,0,0,0,2.04-1.5l3.063-4.125,6.183,2.265-4.874,6.281a2.039,2.039,0,0,1-2.317.667l-4.151-1.517a1.1,1.1,0,0,1-.714-1.036,1.086,1.086,0,0,1,.729-1.021l.041-.015Zm7.661-21.155L27.9,27.1c-4.037-.781-9.51-.751-16.663.751L20,3.633c4.638,5.928,8.734,9.373,12.286,11.355Zm-20.22-5.81A6.955,6.955,0,0,0,8.81,18.455l-2.635,1.27A9.875,9.875,0,0,1,10.786,6.54ZM9.836,4.56A12.075,12.075,0,0,0,4.2,20.678l-2.7,1.3A15.075,15.075,0,0,1,8.532,1.857l1.3,2.7Z" transform="translate(0 -1.857)" fill="#3c096c"/>
</svg>
