<svg xmlns="http://www.w3.org/2000/svg" width="55.333" height="52.474" viewBox="0 0 55.333 52.474">
  <g id="Grupo_361" data-name="Grupo 361" transform="translate(-1107.998 -473.69)">
    <g id="Grupo_360" data-name="Grupo 360" transform="translate(1114.813 477.818)">
      <g id="Grupo_357" data-name="Grupo 357" transform="translate(13.881 0) rotate(30)">
        <g id="Grupo_358" data-name="Grupo 358" transform="translate(0 0)">
          <path id="Caminho_259" data-name="Caminho 259" d="M3.611.111A1.9,1.9,0,0,0,2.98,0C1.334,0,0,2.16,0,4.824S1.334,9.648,2.98,9.648a1.911,1.911,0,0,0,.63-.11Z" transform="translate(0.005 9.486)" fill="#c77dff"/>
          <path id="Caminho_260" data-name="Caminho 260" d="M3.523.111A1.815,1.815,0,0,0,2.908,0C1.3,0,0,2.16,0,4.824S1.3,9.648,2.908,9.648a1.824,1.824,0,0,0,.615-.11Z" transform="translate(0 9.486)" fill="none" stroke="#161615" stroke-miterlimit="10" stroke-width="1"/>
          <path id="Caminho_261" data-name="Caminho 261" d="M1.786,27.762h-.18A1.716,1.716,0,0,1,0,25.955V1.807A1.716,1.716,0,0,1,1.606,0h.18A1.716,1.716,0,0,1,3.393,1.807V25.955a1.716,1.716,0,0,1-1.606,1.807" transform="translate(3.633 0)" fill="#3c096c" stroke="#000" stroke-width="1"/>
        </g>
      </g>
      <g id="Caminho_264" data-name="Caminho 264" transform="translate(28.88 31.477) rotate(30)" fill="#c77dff">
        <path d="M 5.048091888427734 15.34777641296387 L 0.5974292755126953 15.34777641296387 C 0.8082234263420105 14.10326385498047 1.255074381828308 11.09988784790039 1.255074381828308 8.00452709197998 C 1.255074381828308 4.930902004241943 0.8002079725265503 1.778550505638123 0.59259432554245 0.4999967813491821 L 5.045134544372559 0.4999967813491821 C 5.24889087677002 1.609200716018677 5.790184497833252 4.853011131286621 5.790184497833252 8.00452709197998 C 5.790184497833252 11.14614105224609 5.253302574157715 14.26904582977295 5.048091888427734 15.34777641296387 Z" stroke="none"/>
        <path d="M 1.178633689880371 0.9999971389770508 C 1.407680988311768 2.512454986572266 1.755074501037598 5.258993148803711 1.755074501037598 8.004526138305664 C 1.755074501037598 10.72322940826416 1.414412021636963 13.37202548980713 1.18494701385498 14.84777641296387 L 4.631899833679199 14.84777641296387 C 4.866162300109863 13.53563499450684 5.290184497833252 10.77738189697266 5.290184497833252 8.004526138305664 C 5.290184497833252 5.217669486999512 4.860201358795166 2.352173805236816 4.626358985900879 0.9999971389770508 L 1.178633689880371 0.9999971389770508 M 4.291534423828125e-06 -2.86102294921875e-06 L 5.458604335784912 -2.86102294921875e-06 C 5.458604335784912 -2.86102294921875e-06 6.290184497833252 4.042576789855957 6.290184497833252 8.004526138305664 C 6.290184497833252 11.96646690368652 5.458604335784912 15.84777641296387 5.458604335784912 15.84777641296387 L 4.291534423828125e-06 15.84777641296387 C 4.291534423828125e-06 15.84777641296387 0.7550745010375977 11.96646690368652 0.7550745010375977 8.004526138305664 C 0.7550745010375977 4.042576789855957 4.291534423828125e-06 -2.86102294921875e-06 4.291534423828125e-06 -2.86102294921875e-06 Z" stroke="none" fill="#000"/>
      </g>
      <g id="Grupo_359" data-name="Grupo 359" transform="translate(18.623 5.66) rotate(30)">
        <path id="Caminho_262" data-name="Caminho 262" d="M0,0S7.8,5.83,15.568,5.83s13.9-.947,16.094,1.118,1.69,6.821,1.69,6.821-.052,4.224-3.062,4.956-6.958.331-14.722.331S0,23.558,0,23.558Z" fill="#c77dff" stroke="#000" stroke-width="1"/>
        <g id="Caminho_263" data-name="Caminho 263" transform="translate(20.516 5.696)" fill="#3c096c">
          <path d="M 7.218739032745361 12.95489501953125 L 7.195716857910156 12.9522533416748 L 7.190526962280273 12.95438289642334 L 1.059410691261292 12.95438289642334 L 0.5220925807952881 0.5342528820037842 L 7.579257011413574 0.5342528820037842 L 7.685746669769287 0.5342528820037842 L 7.759216785430908 0.5014728903770447 C 7.764167308807373 0.5007529258728027 7.771727561950684 0.4999929070472717 7.781596660614014 0.4999929070472717 C 7.944077014923096 0.4999929070472717 8.212427139282227 0.693082869052887 8.478336334228516 1.235012888908386 C 8.815436363220215 1.922022938728333 9.244236946105957 3.379602909088135 9.372706413269043 6.422102928161621 C 9.531706809997559 10.18782329559326 8.792586326599121 11.78407287597656 8.144546508789062 12.46005249023438 C 7.695707321166992 12.92824268341064 7.283398628234863 12.95386219024658 7.218739032745361 12.95489501953125 Z" stroke="none"/>
          <path d="M 1.044198036193848 1.034253120422363 L 1.538254737854004 12.45438289642334 L 7.190526962280273 12.45438289642334 L 7.201167106628418 12.45017242431641 L 7.225081920623779 12.45290660858154 C 7.310458660125732 12.44036102294922 7.653411865234375 12.35819911956787 8.009237289428711 11.83142280578613 C 8.477847099304199 11.13768291473389 9.008116722106934 9.639742851257324 8.873147010803223 6.443192958831787 C 8.696840286254883 2.267563819885254 7.969857215881348 1.246901512145996 7.754536151885986 1.034253120422363 L 1.044198036193848 1.034253120422363 M 7.781595706939697 -3.814697265625e-06 C 8.295141220092773 -6.389617919921875e-05 9.626152038574219 0.5723667144775391 9.872257232666016 6.401012897491455 C 10.1785364151001 13.65483093261719 7.190525531768799 13.45438289642334 7.190526962280273 13.45438289642334 L 0.5805768966674805 13.45438289642334 L -2.86102294921875e-06 0.03425312042236328 L 7.579257011413574 0.03425312042236328 C 7.579257011413574 0.03425312042236328 7.656027793884277 1.1444091796875e-05 7.781595706939697 -3.814697265625e-06 Z" stroke="none" fill="#000"/>
        </g>
      </g>
    </g>
    <rect id="Retângulo_219" data-name="Retângulo 219" width="10.05" height="2.319" rx="1.16" transform="translate(1123.073 473.69) rotate(90)" fill="#3c096c"/>
    <rect id="Retângulo_220" data-name="Retângulo 220" width="10.05" height="2.319" rx="1.16" transform="matrix(0.819, 0.574, -0.574, 0.819, 1111.362, 479.908)" fill="#3c096c"/>
    <rect id="Retângulo_221" data-name="Retângulo 221" width="10.05" height="2.319" rx="1.16" transform="translate(1118.048 492.983) rotate(180)" fill="#3c096c"/>
  </g>
</svg>
