<svg xmlns="http://www.w3.org/2000/svg" width="38.655" height="38.914" viewBox="0 0 38.655 38.914">
  <g id="Grupo_364" data-name="Grupo 364" transform="translate(-295.595 -558.086)">
    <path id="_Color" data-name=" ↳Color" d="M28.817,30.625h0l-9-8.736V20.5l-.486-.49a11.889,11.889,0,0,1-7.618,2.748A11.56,11.56,0,0,1,0,11.381,11.56,11.56,0,0,1,11.707,0,11.56,11.56,0,0,1,23.413,11.381a11.18,11.18,0,0,1-2.827,7.407l.5.473h1.423L31.5,28.017l-2.681,2.607ZM11.707,3.5a8,8,0,0,0-8.1,7.88,8,8,0,0,0,8.1,7.88,8,8,0,0,0,8.1-7.88A8,8,0,0,0,11.707,3.5Z" transform="translate(302.75 566.375)" fill="#3c096c"/>
    <line id="Linha_105" data-name="Linha 105" y1="10" x2="7" transform="translate(296.5 579.5)" fill="none" stroke="#3c096c" stroke-linecap="round" stroke-width="1.3"/>
    <line id="Linha_106" data-name="Linha 106" y1="13" x2="5" transform="translate(310.5 572.5)" fill="none" stroke="#3c096c" stroke-linecap="round" stroke-width="1.3"/>
    <line id="Linha_107" data-name="Linha 107" x1="3" y1="6" transform="translate(315.5 572.5)" fill="none" stroke="#3c096c" stroke-linecap="round" stroke-width="1.3"/>
    <line id="Linha_108" data-name="Linha 108" x1="3" y2="8" transform="translate(318.5 570.5)" fill="none" stroke="#3c096c" stroke-linecap="round" stroke-width="1.3"/>
    <line id="Linha_109" data-name="Linha 109" y1="9" x2="2.75" transform="translate(321.5 559.5)" fill="none" stroke="#3c096c" stroke-linecap="round" stroke-width="1.3"/>
    <line id="Linha_110" data-name="Linha 110" y1="2" x2="2.5" transform="translate(322 559)" fill="none" stroke="#3c096c" stroke-linecap="round" stroke-width="1.3"/>
    <line id="Linha_111" data-name="Linha 111" x1="1" y1="3" transform="translate(324.5 559)" fill="none" stroke="#3c096c" stroke-linecap="round" stroke-width="1.3"/>
    <g id="Elipse_64" data-name="Elipse 64" transform="translate(306 570)" fill="none" stroke="#fff" stroke-width="1">
      <ellipse cx="8.5" cy="8" rx="8.5" ry="8" stroke="none"/>
      <ellipse cx="8.5" cy="8" rx="8" ry="7.5" fill="none"/>
    </g>
    <g id="Elipse_65" data-name="Elipse 65" transform="translate(302 566)" fill="none" stroke="#fff" stroke-width="1">
      <ellipse cx="12.5" cy="12" rx="12.5" ry="12" stroke="none"/>
      <ellipse cx="12.5" cy="12" rx="12" ry="11.5" fill="none"/>
    </g>
  </g>
</svg>
