<svg xmlns="http://www.w3.org/2000/svg" width="43" height="53.705" viewBox="0 0 43 53.705">
  <path id="Icon_ionic-md-lock" data-name="Icon ionic-md-lock" d="M43.5,20.8H40.875V15.783c0-6.9-5.906-12.549-13.125-12.549S14.625,8.881,14.625,15.783V20.8H12a5.153,5.153,0,0,0-5.25,5.019v25.1A5.153,5.153,0,0,0,12,55.939H43.5a5.153,5.153,0,0,0,5.25-5.019v-25.1A5.153,5.153,0,0,0,43.5,20.8ZM27.75,43.641A5.025,5.025,0,1,1,33,38.622,5.153,5.153,0,0,1,27.75,43.641ZM35.888,20.8H19.612V15.783a8.146,8.146,0,0,1,16.276,0Z" transform="translate(-6.25 -2.734)" fill="#fff" stroke="#3c096c" stroke-width="1"/>
</svg>
