<svg xmlns="http://www.w3.org/2000/svg" width="55.085" height="51.207" viewBox="0 0 55.085 51.207">
  <path id="Icon_awesome-home" data-name="Icon awesome-home" d="M26.283,15.225,9,32.174V50.468a1.662,1.662,0,0,0,1.5,1.786L21,52.221A1.664,1.664,0,0,0,22.5,50.435V39.752A1.662,1.662,0,0,1,24,37.966h6a1.662,1.662,0,0,1,1.5,1.786V50.427a1.974,1.974,0,0,0,.438,1.266A1.39,1.39,0,0,0,33,52.219l10.5.035A1.662,1.662,0,0,0,45,50.468V32.162L27.717,15.225A1,1,0,0,0,26.283,15.225Zm27.3,11.52-7.837-7.692V3.593a1.246,1.246,0,0,0-1.125-1.339h-5.25a1.246,1.246,0,0,0-1.125,1.339v8.1L29.855,3.476a3.959,3.959,0,0,0-5.718,0L.407,26.745a1.521,1.521,0,0,0-.15,1.886l2.39,3.46a1.085,1.085,0,0,0,.761.482,1.008,1.008,0,0,0,.824-.3l22.05-21.625a1,1,0,0,1,1.434,0L49.768,32.274a1.007,1.007,0,0,0,1.584-.179l2.39-3.46a1.52,1.52,0,0,0,.25-.984,1.428,1.428,0,0,0-.41-.905Z" transform="translate(0.585 -1.546)" fill="#fff" stroke="#3c096c" stroke-width="1"/>
</svg>
