<svg xmlns="http://www.w3.org/2000/svg" width="50.204" height="50.204" viewBox="0 0 50.204 50.204">
  <g id="Grupo_389" data-name="Grupo 389" transform="translate(-218.245 -759.072)">
    <circle id="Elipse_19" data-name="Elipse 19" cx="25.102" cy="25.102" r="25.102" transform="translate(218.245 759.072)" fill="#7b2cbf"/>
    <path id="Icon_awesome-linkedin-in" data-name="Icon awesome-linkedin-in" d="M6.239,27.873H.46V9.264H6.239ZM3.347,6.726A3.363,3.363,0,1,1,6.693,3.347,3.375,3.375,0,0,1,3.347,6.726Zm24.52,21.147H22.1V18.814c0-2.159-.044-4.928-3-4.928-3,0-3.465,2.346-3.465,4.772v9.214H9.859V9.264H15.4V11.8h.081A6.072,6.072,0,0,1,20.949,8.8c5.848,0,6.923,3.851,6.923,8.853V27.873Z" transform="translate(229.411 770.237)" fill="#fff"/>
  </g>
</svg>
