<svg xmlns="http://www.w3.org/2000/svg" width="33" height="32" viewBox="0 0 33 32"><g transform="translate(0 0.5)"><path d="M30.19,32h0l-9.434-9.128V21.425l-.509-.512a12.475,12.475,0,0,1-7.981,2.872A12.1,12.1,0,0,1,0,11.892,12.1,12.1,0,0,1,12.264,0,12.1,12.1,0,0,1,24.528,11.892a11.665,11.665,0,0,1-2.962,7.739l.528.494h1.491L33,29.275,30.191,32ZM12.264,3.659a8.375,8.375,0,0,0-8.491,8.233,8.375,8.375,0,0,0,8.491,8.233,8.375,8.375,0,0,0,8.491-8.233A8.375,8.375,0,0,0,12.264,3.659Z" transform="translate(0 -0.5)" fill="#5a189a"/></g></svg>