<svg xmlns="http://www.w3.org/2000/svg" xmlns:xlink="http://www.w3.org/1999/xlink" width="51.788" height="60" viewBox="0 0 51.788 60"><defs><clipPath id="a"><rect width="51.788" height="60" fill="#fff"/></clipPath></defs><g clip-path="url(#a)"><path d="M78.925,80.336c-1.312,0-2.6-.021-3.882.006-1.062.022-1.168-.085-.8-1.119,1.844-5.252,3.656-10.514,5.484-15.771a3.4,3.4,0,0,0-.108-2.517c-.569-1.384-1.091-2.789-1.607-4.194a1.615,1.615,0,0,1,.638-1.961,16.136,16.136,0,0,1,4.683-2.251,2.652,2.652,0,0,1,1.371,0,16.217,16.217,0,0,1,4.642,2.234,1.623,1.623,0,0,1,.642,2q-.78,2.058-1.615,4.094a3.254,3.254,0,0,0-.1,2.388q2.792,8.109,5.578,16.219c.257.747.169.868-.638.869h-4.13c-.118,1.06-.234,2.095-.348,3.129q-.712,6.477-1.423,12.955c-.126,1.143-.244,2.288-.381,3.43a1.389,1.389,0,0,1-1.437,1.295c-.969.011-1.939.008-2.908,0a1.4,1.4,0,0,1-1.5-1.324c-.3-2.662-.593-5.326-.887-7.989q-.579-5.258-1.156-10.517c-.035-.315-.07-.629-.109-.98" transform="translate(-58.108 -41.153)" fill="#fff"/><path d="M45.51,95.053c-.114,1.059-.218,2.05-.327,3.041q-.524,4.784-1.051,9.568c-.069.632-.129,1.265-.2,1.9a1.206,1.206,0,0,1-1.35,1.216c-.742.006-1.484.008-2.226,0a1.182,1.182,0,0,1-1.321-1.187q-.862-7.853-1.724-15.706c-.013-.117-.043-.232-.072-.382-1.153,0-2.286,0-3.418,0-.65,0-.723-.1-.507-.729Q35.6,86.146,37.9,79.524a2.861,2.861,0,0,0-.07-2.118c-.469-1.147-.9-2.31-1.33-3.474a1.346,1.346,0,0,1,.555-1.67A13.171,13.171,0,0,1,40.8,70.452a2.384,2.384,0,0,1,1.362.009c.937.329,1.832.778,2.735,1.2.133.062.218.23.316.356a.6.6,0,0,1,.067.168,7.169,7.169,0,0,1,.815,2.424,7.963,7.963,0,0,1-.95,2.622,2.57,2.57,0,0,0-.064,2.238,4.1,4.1,0,0,1,.029,3.451c-1.387,3.743-2.646,7.533-3.954,11.3-.237.683-.13.83.608.83,1.224,0,2.449,0,3.748,0" transform="translate(-26.055 -55.211)" fill="#fff"/><path d="M147.865,94.9c1.307,0,2.546,0,3.786,0,.674,0,.789-.159.573-.789-1.445-4.2-2.9-8.406-4.326-12.616a1.494,1.494,0,0,1,.006-.905c.865-2.489.8-2.122-.082-4.415a5.556,5.556,0,0,1-.609-1.786c0-.578.451-1.143.6-1.739a2.184,2.184,0,0,1,1.494-1.6c.51-.187,1.006-.412,1.5-.637a2.416,2.416,0,0,1,2.147,0c1.085.529,2.18,1.043,3.232,1.631a1.346,1.346,0,0,1,.614,1.868c-.436,1.128-.882,2.252-1.332,3.376a2.644,2.644,0,0,0-.033,1.906q2.274,6.606,4.545,13.212c.039.115.085.227.12.343.135.445.035.591-.428.593-1.06.006-2.12.012-3.18,0-.3,0-.415.078-.449.394q-.846,7.854-1.716,15.706a1.173,1.173,0,0,1-1.28,1.182c-.772.011-1.544.009-2.317,0a1.181,1.181,0,0,1-1.293-1.175c-.226-1.985-.437-3.971-.655-5.957q-.443-4.039-.885-8.079c-.016-.148-.022-.3-.037-.51" transform="translate(-115.521 -55.06)" fill="#fff"/><path d="M10.188,106.343c-.113,1.053-.219,2.044-.327,3.034-.319,2.918-.645,5.836-.957,8.754-.1.9-.4,1.206-1.3,1.21-.56,0-1.121.006-1.68,0A1,1,0,0,1,4.82,118.33q-.694-6.363-1.387-12.726c-.019-.178-.053-.354-.085-.566-.946,0-1.867,0-2.788,0-.595,0-.653-.08-.46-.634q1.888-5.442,3.781-10.882a2.413,2.413,0,0,0-.045-1.807c-.383-.921-.727-1.859-1.073-2.795a1.091,1.091,0,0,1,.491-1.487c1.023-.545,2.077-1.035,3.142-1.494a2.506,2.506,0,0,1,.927-.016.394.394,0,0,1,.088.021A3.385,3.385,0,0,1,10.2,88.47a2.988,2.988,0,0,1-.042,2.48c-.113.194-.161.425-.261.628a1.973,1.973,0,0,0-.073,1.8,2.647,2.647,0,0,1,0,2.2c-1.2,3.343-2.345,6.707-3.51,10.064-.2.586-.124.7.5.7,1.1,0,2.207,0,3.388,0" transform="translate(0 -67.395)" fill="#fff"/><path d="M199.074,105.074c-.119,1.064-.238,2.1-.351,3.131q-.557,5.1-1.113,10.2a.983.983,0,0,1-1.05.97c-.651.014-1.3.016-1.953,0a.976.976,0,0,1-1.051-.968q-.474-4.263-.931-8.528l-.379-3.472c.2-.009.357-.022.516-.022.939,0,1.877,0,2.816,0,.694,0,.76-.091.539-.735q-1.849-5.383-3.689-10.769a1.1,1.1,0,0,1-.009-.728,3.022,3.022,0,0,0-.064-2.913,3.277,3.277,0,0,1-.02-3.033,3.151,3.151,0,0,1,2.033-2.011,2.837,2.837,0,0,1,2.441.029c.791.409,1.6.794,2.365,1.24a1.112,1.112,0,0,1,.492,1.49c-.342.9-.688,1.809-1.063,2.7a2.356,2.356,0,0,0-.064,1.764q1.9,5.486,3.781,10.977c.211.614.162.683-.484.684h-2.763" transform="translate(-150.645 -67.43)" fill="#fff"/><path d="M102.48,9.752a4.876,4.876,0,1,1,4.878-4.883,4.874,4.874,0,0,1-4.878,4.883" transform="translate(-76.576 0)" fill="#fff"/><path d="M60.884,30.8a4.05,4.05,0,1,1-8.1-.037,4.05,4.05,0,1,1,8.1.037" transform="translate(-41.421 -20.969)" fill="#fff"/><path d="M150.165,30.774a4.048,4.048,0,1,1,4.059,4.059,4.044,4.044,0,0,1-4.059-4.059" transform="translate(-117.838 -20.968)" fill="#fff"/><path d="M22.935,53.163A3.35,3.35,0,1,1,19.6,49.812a3.348,3.348,0,0,1,3.332,3.351" transform="translate(-12.741 -39.089)" fill="#fff"/><path d="M193.2,53.14a3.35,3.35,0,1,1,3.314,3.384A3.329,3.329,0,0,1,193.2,53.14" transform="translate(-151.609 -39.089)" fill="#fff"/></g></svg>