<svg xmlns="http://www.w3.org/2000/svg" width="31.942" height="31.942" viewBox="0 0 31.942 31.942">
  <g id="Grupo_567" data-name="Grupo 567" transform="translate(-16.104 -427.726)">
    <ellipse id="Elipse_34" data-name="Elipse 34" cx="15.971" cy="15.971" rx="15.971" ry="15.971" transform="translate(16.104 427.726)" fill="#c77dff"/>
    <path id="Icon_material-work" data-name="Icon material-work" d="M19.421,6.649H15.772V4.825A1.818,1.818,0,0,0,13.947,3H10.3A1.818,1.818,0,0,0,8.474,4.825V6.649H4.825A1.81,1.81,0,0,0,3.009,8.474L3,18.508a1.818,1.818,0,0,0,1.825,1.825h14.6a1.818,1.818,0,0,0,1.825-1.825V8.474A1.818,1.818,0,0,0,19.421,6.649Zm-5.474,0H10.3V4.825h3.649Z" transform="translate(19.952 432.031)" fill="#240046"/>
  </g>
</svg>
