<svg xmlns="http://www.w3.org/2000/svg" width="32.497" height="32.497" viewBox="0 0 32.497 32.497">
  <path id="Icon_ionic-ios-arrow-dropleft-circle" data-name="Icon ionic-ios-arrow-dropleft-circle" d="M19.624,3.375A16.249,16.249,0,1,0,35.872,19.624,16.246,16.246,0,0,0,19.624,3.375Zm3.39,22.584a1.514,1.514,0,0,1,0,2.133,1.489,1.489,0,0,1-1.062.437,1.515,1.515,0,0,1-1.07-.445l-7.343-7.367a1.506,1.506,0,0,1,.047-2.078l7.453-7.476A1.508,1.508,0,0,1,23.17,13.3l-6.4,6.328Z" transform="translate(-3.375 -3.375)" fill="#fff"/>
</svg>
