<svg xmlns="http://www.w3.org/2000/svg" width="29.067" height="29.067" viewBox="0 0 29.067 29.067">
  <g id="Grupo_384" data-name="Grupo 384" transform="translate(-32.207 -1022.628)">
    <circle id="Elipse_34" data-name="Elipse 34" cx="14.533" cy="14.533" r="14.533" transform="translate(32.207 1022.628)" fill="#c77dff"/>
    <g id="Grupo_246" data-name="Grupo 246" transform="translate(39.491 1027.241)">
      <path id="Caminho_37" data-name="Caminho 37" d="M513.19,1.648A3.45,3.45,0,0,1,509.417.564c-1.4-1.9-10.289,1.341-11.352,4.822a14.319,14.319,0,0,1,4.488-2.736c2.4-.8,2.292.927,1.9,1.835l.384.082,3.2.684s.364-1.03.955-1.18,2.493.35,2.77.917l-.043.135,1.422.39s1.368-2.246,1.227-3.229Z" transform="translate(-498.065 -0.001)" fill="#240046"/>
      <path id="Caminho_38" data-name="Caminho 38" d="M535.478,97.2l2.238-9.737a.467.467,0,0,0-.378-.586l-2.541-.5a.516.516,0,0,0-.593.327l-4.618,15.148,4.618,1.276" transform="translate(-527.763 -81.369)" fill="#240046"/>
    </g>
  </g>
</svg>
