<svg xmlns="http://www.w3.org/2000/svg" width="50.204" height="50.204" viewBox="0 0 50.204 50.204">
  <g id="Grupo_388" data-name="Grupo 388" transform="translate(-157.83 -759.072)">
    <circle id="Elipse_18" data-name="Elipse 18" cx="25.102" cy="25.102" r="25.102" transform="translate(157.83 759.072)" fill="#7b2cbf"/>
    <path id="Icon_awesome-youtube" data-name="Icon awesome-youtube" d="M31.664,7.94A3.929,3.929,0,0,0,28.9,5.158C26.462,4.5,16.684,4.5,16.684,4.5s-9.778,0-12.216.658A3.929,3.929,0,0,0,1.7,7.94a41.215,41.215,0,0,0-.653,7.575A41.215,41.215,0,0,0,1.7,23.09a3.87,3.87,0,0,0,2.764,2.738c2.438.658,12.216.658,12.216.658s9.778,0,12.216-.658a3.87,3.87,0,0,0,2.764-2.738,41.215,41.215,0,0,0,.653-7.575,41.215,41.215,0,0,0-.653-7.575ZM13.486,20.164v-9.3l8.172,4.649-8.172,4.649Z" transform="translate(166.248 768.681)" fill="#fff"/>
  </g>
</svg>
