<svg xmlns="http://www.w3.org/2000/svg" xmlns:xlink="http://www.w3.org/1999/xlink" width="254.542" height="191.717" viewBox="0 0 254.542 191.717">
  <defs>
    <clipPath id="clip-path">
      <path id="Caminho_46" data-name="Caminho 46" d="M206.473,109.477l-14.628,66.786q-3.026,12.121-5.027,17.755a23.667,23.667,0,0,1-6.787,9.875c-3.193,2.827-6.385,4.244-12.2,4.244q-8.243,0-13.208-4.12a24.1,24.1,0,0,1-6.911-9.274c-1.453-3.4-4.378-9.4-8.076-16.678l-27.29-53.9-27.421,53.67c-2.847,7.746-5.85,13.159-7.182,16.674a23.156,23.156,0,0,1-6.969,9.467c-3.313,2.8-7.717,4.182-13.208,4.182A21.7,21.7,0,0,1,46.6,205.675a19.054,19.054,0,0,1-6.969-7.031,44.138,44.138,0,0,1-4.371-10.822q-1.694-6.238-3.029-11.572L2.667,56.646Q0,46.226,0,40.771A15.612,15.612,0,0,1,4.848,29.137a16.512,16.512,0,0,1,12-4.727q9.819,0,13.211,6.3t5.938,18.3L59.262,152.749l23-44.7c4.133-7.182,6.042-11.132,8.389-15.764A29.464,29.464,0,0,1,98.16,82.226q5.205-4.245,14.177-4.244,9.088,0,14.118,4.423a24.148,24.148,0,0,1,6.969,9.633c1.306,3.477,3.542,8.292,6.96,16.087l24.431,44.621,4.968-15.2c1.613-4.9,1.371-3.816,2.1-7.077C171.88,130.473,190.249,140.374,206.473,109.477Z" transform="translate(0 -24.41)" fill="none"/>
    </clipPath>
    <linearGradient id="linear-gradient" x1="-0.062" y1="0.893" x2="1.062" y2="0.107" gradientUnits="objectBoundingBox">
      <stop offset="0" stop-color="#c77dff"/>
      <stop offset="0.19" stop-color="#9d4edd"/>
      <stop offset="0.4" stop-color="#7b2cbf"/>
      <stop offset="0.6" stop-color="#5a189a"/>
      <stop offset="0.8" stop-color="#3c096c"/>
      <stop offset="0.81" stop-color="#3b096b"/>
      <stop offset="1" stop-color="#240046"/>
    </linearGradient>
    <clipPath id="clip-path-2">
      <path id="Caminho_47" data-name="Caminho 47" d="M583.031,9.3s-13.423,4.616-21.287-6.117S503.69,10.751,497.69,30.39c0,0,11.752-10.926,25.325-15.434s12.934,5.223,10.743,10.355l2.168.48,18.068,3.862s2.054-5.817,5.386-6.663,14.066,1.959,15.63,5.174l-.245.761,8.024,2.2s7.71-12.689,6.921-18.235Z" transform="translate(-497.69 -0.002)" fill="none"/>
    </clipPath>
    <clipPath id="clip-path-3">
      <path id="Caminho_48" data-name="Caminho 48" d="M562.418,147.415l12.626-54.94a2.634,2.634,0,0,0-2.135-3.307l-14.341-2.827a2.915,2.915,0,0,0-3.333,1.848L529.18,169.045S545.851,181.13,562.418,147.415Z" transform="translate(-529.18 -86.28)" fill="none"/>
    </clipPath>
  </defs>
  <g id="Camada_2" data-name="Camada 2" transform="translate(56 -13.002)">
    <g id="Camada_1" data-name="Camada 1" transform="translate(-56 13.002)">
      <g id="Grupo_96" data-name="Grupo 96" transform="translate(0 7.968)" clip-path="url(#clip-path)">
        <rect id="Retângulo_61" data-name="Retângulo 61" width="258.213" height="235.036" transform="translate(-3.663 -47.487)" fill="url(#linear-gradient)"/>
      </g>
      <g id="Grupo_97" data-name="Grupo 97" transform="translate(162.465)" clip-path="url(#clip-path-2)">
        <rect id="Retângulo_62" data-name="Retângulo 62" width="258.213" height="235.036" transform="translate(-166.128 -39.519)" fill="url(#linear-gradient)"/>
      </g>
      <g id="Grupo_98" data-name="Grupo 98" transform="translate(172.745 28.164)" clip-path="url(#clip-path-3)">
        <rect id="Retângulo_63" data-name="Retângulo 63" width="258.213" height="235.036" transform="translate(-176.408 -67.684)" fill="url(#linear-gradient)"/>
      </g>
    </g>
  </g>
</svg>
