<svg xmlns="http://www.w3.org/2000/svg" xmlns:xlink="http://www.w3.org/1999/xlink" width="28.455" height="21.429" viewBox="0 0 28.455 21.429">
  <defs>
    <clipPath id="clip-path">
      <rect id="Retângulo_56" data-name="Retângulo 56" width="28.455" height="21.429" fill="none"/>
    </clipPath>
  </defs>
  <g id="Grupo_87" data-name="Grupo 87" clip-path="url(#clip-path)">
    <path id="Caminho_36" data-name="Caminho 36" d="M23.082,33.936,21.447,41.4q-.339,1.355-.562,1.985a2.643,2.643,0,0,1-.759,1.1,1.821,1.821,0,0,1-1.364.474,2.24,2.24,0,0,1-1.477-.461,2.7,2.7,0,0,1-.772-1.036c-.163-.38-.49-1.051-.9-1.865l-3.051-6.026-3.065,6c-.318.866-.654,1.471-.8,1.864A2.578,2.578,0,0,1,7.912,44.5a2.218,2.218,0,0,1-1.477.467,2.428,2.428,0,0,1-1.226-.278A2.13,2.13,0,0,1,4.43,43.9,4.93,4.93,0,0,1,3.942,42.7Q3.753,42,3.6,41.4L.3,28.03A7.819,7.819,0,0,1,0,26.255a1.745,1.745,0,0,1,.542-1.3,1.846,1.846,0,0,1,1.341-.528,1.522,1.522,0,0,1,1.477.7,7.964,7.964,0,0,1,.664,2.046l2.6,11.6,2.571-5c.462-.8.676-1.245.938-1.762a3.287,3.287,0,0,1,.84-1.124,2.439,2.439,0,0,1,1.585-.474,2.312,2.312,0,0,1,1.578.494,2.7,2.7,0,0,1,.779,1.077c.144.388.4.927.778,1.8l2.731,4.988.555-1.7a5.118,5.118,0,0,0,.235-.791s2.053,1.107,3.867-2.347" transform="translate(0 -23.535)" fill="#7b2cbf"/>
    <path id="Caminho_37" data-name="Caminho 37" d="M507.605,1.04a2.176,2.176,0,0,1-2.38-.684c-.881-1.2-6.49.846-7.161,3.042A9.031,9.031,0,0,1,500.9,1.672c1.516-.5,1.446.585,1.2,1.158l.242.052,2.02.431s.23-.65.6-.745a2.389,2.389,0,0,1,1.747.578l-.027.085.9.246a5.089,5.089,0,0,0,.774-2.037Z" transform="translate(-479.903 -0.001)" fill="#7b2cbf"/>
    <path id="Caminho_38" data-name="Caminho 38" d="M533.3,93.2l1.412-6.142a.3.3,0,0,0-.239-.37l-1.6-.316a.325.325,0,0,0-.374.206l-2.913,9.039s1.864,1.351,3.717-2.418" transform="translate(-510.274 -83.213)" fill="#7b2cbf"/>
  </g>
</svg>
