<svg xmlns="http://www.w3.org/2000/svg" xmlns:xlink="http://www.w3.org/1999/xlink" width="66.324" height="49.949" viewBox="0 0 66.324 49.949"><defs><clipPath id="a"><rect width="66.324" height="49.949" fill="#fff"/></clipPath></defs><g clip-path="url(#a)"><path d="M53.8,46.592l-3.811,17.4q-.79,3.158-1.311,4.626a6.16,6.16,0,0,1-1.768,2.574A4.245,4.245,0,0,1,43.73,72.3a5.222,5.222,0,0,1-3.442-1.074,6.282,6.282,0,0,1-1.8-2.416c-.379-.885-1.141-2.45-2.1-4.346L29.273,50.417,22.129,64.4c-.742,2.019-1.524,3.429-1.871,4.345a6.008,6.008,0,0,1-1.816,2.463A5.17,5.17,0,0,1,15,72.3a5.658,5.658,0,0,1-2.858-.647,4.964,4.964,0,0,1-1.816-1.832,11.49,11.49,0,0,1-1.137-2.81q-.443-1.626-.789-3.016L.695,32.826A18.224,18.224,0,0,1,0,28.689a4.067,4.067,0,0,1,1.263-3.031,4.3,4.3,0,0,1,3.126-1.232q2.558,0,3.442,1.642a18.563,18.563,0,0,1,1.547,4.768l6.063,27.031,5.993-11.648c1.077-1.874,1.575-2.9,2.186-4.107a7.661,7.661,0,0,1,1.958-2.621,5.685,5.685,0,0,1,3.695-1.105,5.389,5.389,0,0,1,3.679,1.153,6.3,6.3,0,0,1,1.816,2.511c.336.905.922,2.161,1.813,4.191l6.365,11.627,1.293-3.96a11.929,11.929,0,0,0,.547-1.845s4.786,2.58,9.013-5.47" transform="translate(0 -22.35)" fill="#fff"/><path d="M520.3,2.423s-3.494,1.2-5.547-1.594-15.127,1.972-16.69,7.09a21.051,21.051,0,0,1,6.6-4.022c3.535-1.175,3.37,1.363,2.8,2.7l.565.121,4.707,1.006s.535-1.515,1.4-1.736,3.665.514,4.072,1.348l-.064.2,2.09.574s2.011-3.3,1.8-4.747Z" transform="translate(-455.733 -0.001)" fill="#fff"/><path d="M538.249,102.29l3.29-14.315a.687.687,0,0,0-.556-.862l-3.736-.736a.759.759,0,0,0-.872.481l-6.789,21.068s4.344,3.149,8.664-5.636" transform="translate(-484.574 -79.022)" fill="#fff"/></g></svg>