<svg xmlns="http://www.w3.org/2000/svg" xmlns:xlink="http://www.w3.org/1999/xlink" width="30" height="30" viewBox="0 0 30 30">
  <defs>
    <clipPath id="clip-path">
      <rect id="Retângulo_15" data-name="Retângulo 15" width="30" height="30" transform="translate(-0.479)" fill="rgba(255,255,255,0.74)"/>
    </clipPath>
  </defs>
  <g id="Grupo_19" data-name="Grupo 19" transform="translate(0.479)" clip-path="url(#clip-path)">
    <path id="Caminho_21" data-name="Caminho 21" d="M176.781,10.784a4.306,4.306,0,0,1-.729,1.667,3.4,3.4,0,0,1-2.725,1.372q-3.453.028-6.907,0a3.5,3.5,0,0,1-3.459-3.455q-.019-3.454,0-6.909a3.5,3.5,0,0,1,3.46-3.455c2.273-.013,4.546-.007,6.819,0a3.513,3.513,0,0,1,3.484,2.886,1.128,1.128,0,0,0,.057.159Zm-6.911.7c1.1,0,2.2,0,3.307,0a1.176,1.176,0,0,0,1.26-1.262q0-3.308,0-6.616a1.174,1.174,0,0,0-1.262-1.26q-3.307,0-6.614,0a1.174,1.174,0,0,0-1.26,1.262q0,3.308,0,6.616a1.175,1.175,0,0,0,1.262,1.261c1.1,0,2.2,0,3.307,0" transform="translate(-146.786 0)" fill="rgba(255,255,255,0.74)"/>
    <path id="Caminho_22" data-name="Caminho 22" d="M3.051,176.812a4.427,4.427,0,0,1-1.62-.695A3.424,3.424,0,0,1,.01,173.329c-.016-2.283-.012-4.567,0-6.85a3.508,3.508,0,0,1,3.485-3.49q3.424-.015,6.849,0a3.505,3.505,0,0,1,3.485,3.49c.01,2.254.005,4.508,0,6.762a3.514,3.514,0,0,1-2.915,3.518.7.7,0,0,0-.13.053Zm8.434-6.914q0-1.639,0-3.279a1.182,1.182,0,0,0-1.292-1.29q-3.278,0-6.556,0a1.181,1.181,0,0,0-1.289,1.291q0,3.279,0,6.557a1.182,1.182,0,0,0,1.291,1.29q3.278,0,6.556,0a1.183,1.183,0,0,0,1.29-1.292q0-1.639,0-3.279" transform="translate(0.001 -146.812)" fill="rgba(255,255,255,0.74)"/>
    <path id="Caminho_23" data-name="Caminho 23" d="M166,176.827a4.423,4.423,0,0,1-1.62-.695,3.425,3.425,0,0,1-1.421-2.789c-.016-2.284-.012-4.568,0-6.851A3.508,3.508,0,0,1,166.449,163c2.254-.01,4.508-.005,6.762,0a3.509,3.509,0,0,1,3.517,2.915.717.717,0,0,0,.053.13v7.733c-.021.062-.046.124-.061.187a3.5,3.5,0,0,1-2.32,2.668c-.215.08-.443.128-.665.191Zm3.878-11.483q-1.654,0-3.307,0a1.177,1.177,0,0,0-1.273,1.278q0,3.293,0,6.586a1.178,1.178,0,0,0,1.278,1.274q3.292,0,6.585,0a1.178,1.178,0,0,0,1.274-1.278q0-3.293,0-6.586a1.178,1.178,0,0,0-1.278-1.274q-1.639,0-3.278,0" transform="translate(-146.786 -146.827)" fill="rgba(255,255,255,0.74)"/>
    <path id="Caminho_24" data-name="Caminho 24" d="M6.955,13.849c-1.112,0-2.225,0-3.337,0A3.518,3.518,0,0,1,.044,10.266q0-3.338,0-6.676A3.513,3.513,0,0,1,3.6.024q3.352-.007,6.7,0A3.512,3.512,0,0,1,13.865,3.59q.006,3.338,0,6.676a3.515,3.515,0,0,1-3.573,3.583c-1.112,0-2.225,0-3.337,0m0-2.343c1.1,0,2.2,0,3.307,0a1.176,1.176,0,0,0,1.261-1.262q0-3.308,0-6.616a1.174,1.174,0,0,0-1.262-1.26q-3.307,0-6.614,0a1.173,1.173,0,0,0-1.26,1.261q0,3.308,0,6.616A1.175,1.175,0,0,0,3.648,11.5c1.1,0,2.2,0,3.307,0" transform="translate(-0.038 -0.018)" fill="rgba(255,255,255,0.74)"/>
  </g>
</svg>
