<svg xmlns="http://www.w3.org/2000/svg" xmlns:xlink="http://www.w3.org/1999/xlink" width="318" height="203" viewBox="0 0 318 203"><defs><clipPath id="a"><rect width="318" height="203" transform="translate(36 2047)" fill="red" opacity="0.32"/></clipPath><filter id="b" x="-9" y="-676.021" width="336" height="885.021" filterUnits="userSpaceOnUse"><feOffset dy="-3" input="SourceAlpha"/><feGaussianBlur stdDeviation="3" result="c"/><feFlood flood-opacity="0.161"/><feComposite operator="in" in2="c"/><feComposite in="SourceGraphic"/></filter></defs><g transform="translate(-36 -2047)" clip-path="url(#a)"><g transform="matrix(1, 0, 0, 1, 36, 2047)" filter="url(#b)"><path d="M192.9,586.932h0a30.724,30.724,0,0,1,31.176-30.561c16.644.264,29.823,14.277,29.823,30.971V628.3a32.134,32.134,0,0,0,64.093,0v-798.1A13.674,13.674,0,0,0,304.346-183.5H13.63A13.651,13.651,0,0,0,0-169.83V625.808c0,18.1,14.766,33.265,32.806,32.9a32.2,32.2,0,0,0,31.5-32.238v-90.68h0A32.653,32.653,0,0,1,96.47,507.42c17.9-.1,32.547,15.125,32.547,33.08v4.517L128.6,658.06h0c3.107,14.55,16.715,25.461,32.151,25.461S189.8,672.556,192.9,658.007" transform="translate(0 -480.52)" fill="#fff"/></g></g></svg>