<svg xmlns="http://www.w3.org/2000/svg" width="390.001" height="71.393" viewBox="0 0 390.001 71.393"><path d="M-1125.423,57.392a281.614,281.614,0,0,1-46.475-3.561,229.764,229.764,0,0,1-46.547-12.815c-31.86-12.449-68.818-25.259-101.37-25.879-2.4-.046-4.865-.069-7.334-.069-28.635,0-58.117,3.1-74.632,6.181L-1418,24.225V-14h390V26.706l-16.22,9.3a169.914,169.914,0,0,1-33.09,14.105,156.9,156.9,0,0,1-45.255,7.27C-1123.519,57.389-1124.481,57.392-1125.423,57.392Z" transform="translate(1418 14)" fill="#fff"/></svg>