<svg xmlns="http://www.w3.org/2000/svg" width="390" height="97.104" viewBox="0 0 390 97.104"><path d="M-1027,1278.013h-390v-45.628l15.3-14.917a145.269,145.269,0,0,1,14.623-12.372,143.178,143.178,0,0,1,18.637-11.74,116.124,116.124,0,0,1,21.694-8.819,89.314,89.314,0,0,1,23.793-3.607c.959-.012,1.927-.019,2.879-.019a169.809,169.809,0,0,1,46.712,6.087,155.992,155.992,0,0,1,23.235,8.633,178.96,178.96,0,0,1,23.548,13.271c32.024,21.28,69.173,43.178,101.892,44.238,2.411.078,4.893.118,7.375.118,28.781,0,58.413-5.306,75.014-10.564l15.3-4.774v40.093Z" transform="translate(1417 -1180.909)" fill="#fff"/></svg>