<svg id="Grupo_428" data-name="Grupo 428" xmlns="http://www.w3.org/2000/svg" xmlns:xlink="http://www.w3.org/1999/xlink" width="189.564" height="189.564" viewBox="0 0 189.564 189.564">
  <defs>
    <clipPath id="clip-path">
      <rect id="Retângulo_270" data-name="Retângulo 270" width="189.564" height="189.564" fill="none"/>
    </clipPath>
  </defs>
  <g id="Grupo_427" data-name="Grupo 427" clip-path="url(#clip-path)">
    <path id="Caminho_304" data-name="Caminho 304" d="M124.72,184.343a94.865,94.865,0,0,1-62.4-.883" fill="none" stroke="#161615" stroke-miterlimit="10" stroke-width="0.75"/>
    <path id="Caminho_305" data-name="Caminho 305" d="M148.655,172.319q-.843.587-1.7,1.156" fill="none" stroke="#161615" stroke-miterlimit="10" stroke-width="0.75"/>
    <path id="Caminho_306" data-name="Caminho 306" d="M172.783,147.981a94.956,94.956,0,0,1-24.128,24.338" fill="none" stroke="#161615" stroke-miterlimit="10" stroke-width="0.75"/>
    <path id="Caminho_307" data-name="Caminho 307" d="M186,70.351a95.094,95.094,0,0,1-.007,48.889" fill="none" stroke="#161615" stroke-miterlimit="10" stroke-width="0.75"/>
    <path id="Caminho_308" data-name="Caminho 308" d="M146.958,16.092a94.935,94.935,0,0,1,25.828,25.5" fill="none" stroke="#161615" stroke-miterlimit="10" stroke-width="0.75"/>
    <path id="Caminho_309" data-name="Caminho 309" d="M62.32,6.105a94.871,94.871,0,0,1,62.4-.883" fill="none" stroke="#161615" stroke-miterlimit="10" stroke-width="0.75"/>
    <path id="Caminho_310" data-name="Caminho 310" d="M16.776,41.59A94.912,94.912,0,0,1,40.9,17.252" fill="none" stroke="#161615" stroke-miterlimit="10" stroke-width="0.75"/>
    <path id="Caminho_311" data-name="Caminho 311" d="M3.573,119.238a95.111,95.111,0,0,1-.007-48.886" fill="none" stroke="#161615" stroke-miterlimit="10" stroke-width="0.75"/>
    <path id="Caminho_312" data-name="Caminho 312" d="M40.9,172.315A94.928,94.928,0,0,1,16.779,147.98" fill="none" stroke="#161615" stroke-miterlimit="10" stroke-width="0.75"/>
    <rect id="Retângulo_268" data-name="Retângulo 268" width="106.902" height="70.508" rx="7.846" transform="translate(40.903 56.24)" fill="none" stroke="#161615" stroke-miterlimit="10" stroke-width="0.75"/>
    <path id="Caminho_313" data-name="Caminho 313" d="M94.354,68.443A23.051,23.051,0,1,0,117.4,91.494,23.051,23.051,0,0,0,94.354,68.443m0,40.339a17.288,17.288,0,1,1,17.288-17.288,17.288,17.288,0,0,1-17.288,17.288" fill="#161434"/>
    <path id="Caminho_314" data-name="Caminho 314" d="M94.354,68.443A23.051,23.051,0,1,0,117.4,91.494,23.051,23.051,0,0,0,94.354,68.443Zm0,40.339a17.288,17.288,0,1,1,17.288-17.288A17.288,17.288,0,0,1,94.354,108.782Z" fill="none" stroke="#161615" stroke-miterlimit="10" stroke-width="0.75"/>
    <path id="Caminho_315" data-name="Caminho 315" d="M124.72,56.24H62.32L77.066,43.359h34.576Z" fill="none" stroke="#161615" stroke-miterlimit="10" stroke-width="0.75"/>
    <rect id="Retângulo_269" data-name="Retângulo 269" width="10.847" height="3.051" transform="translate(49.138 53.189)" fill="none" stroke="#161615" stroke-miterlimit="10" stroke-width="0.75"/>
  </g>
</svg>
