<svg xmlns="http://www.w3.org/2000/svg" width="190" height="338" viewBox="0 0 190 338">
  <g id="Grupo_572" data-name="Grupo 572" transform="translate(-100 -195)">
    <g id="Grupo_570" data-name="Grupo 570" transform="translate(0 84.217)">
      <g id="Caminho_417" data-name="Caminho 417" transform="translate(168.954 212.942)" fill="none">
        <path d="M26.237,0c5.6,0,9.934,1.119,16,6.468S47.579,21.4,47.579,21.4H4.517s-1.054-9.58,5.343-14.93S20.5,0,26.237,0Z" stroke="none"/>
        <path d="M 26.23666000366211 1.000003814697266 C 23.13339996337891 1.000003814697266 20.86151123046875 1.34886360168457 18.64002990722656 2.166513442993164 C 16.10990142822266 3.097763061523438 13.5240592956543 4.708454132080078 10.50222015380859 7.235433578491211 C 9.160041809082031 8.357824325561523 8.062801361083984 9.78093433380127 7.240959167480469 11.46522426605225 C 6.573188781738281 12.83377361297607 6.083309173583984 14.37844371795654 5.784919738769531 16.05634307861328 C 5.461620330810547 17.87434005737305 5.435367584228516 19.46206283569336 5.461280822753906 20.39834403991699 L 46.60468292236328 20.39834403991699 C 46.59752655029297 17.95476531982422 46.13741302490234 11.24264335632324 41.57444000244141 7.218303680419922 C 38.73200225830078 4.711404800415039 36.23418045043945 3.105663299560547 33.71364974975586 2.164943695068359 C 31.52581977844238 1.348394393920898 29.28971099853516 1.000003814697266 26.23666000366211 1.000003814697266 M 26.23666000366211 3.814697265625e-06 C 31.84101104736328 3.814697265625e-06 36.1702995300293 1.118734359741211 42.23588943481445 6.468314170837402 C 48.30147933959961 11.81790351867676 47.57925033569336 21.39834403991699 47.57925033569336 21.39834403991699 L 4.517360687255859 21.39834403991699 C 4.517360687255859 21.39834403991699 3.46356201171875 11.81790351867676 9.860721588134766 6.468314170837402 C 16.25788879394531 1.118734359741211 20.49529075622559 3.814697265625e-06 26.23666000366211 3.814697265625e-06 Z" stroke="none" fill="#240046"/>
      </g>
      <g id="Caminho_418" data-name="Caminho 418" transform="translate(179.216 215.288)" fill="#240046">
        <path d="M 2.039233922958374 15.50694561004639 C 1.19050395488739 15.50694561004639 0.5000039339065552 14.81644535064697 0.5000039339065552 13.9677152633667 L 0.5000039339065552 3.755675554275513 C 0.5000039339065552 3.203345537185669 1.546073913574219 2.451125621795654 2.253063917160034 2.116655588150024 L 2.267233848571777 2.109955549240112 L 2.280963897705078 2.102365493774414 C 2.588733911514282 1.933055520057678 3.205773830413818 1.664135575294495 3.549773931503296 1.664135575294495 C 3.560532331466675 1.664135575294495 3.570065498352051 1.664426684379578 3.578464031219482 1.6649010181427 L 3.578464031219482 13.9677152633667 C 3.578464031219482 14.81644535064697 2.887964010238647 15.50694561004639 2.039233922958374 15.50694561004639 Z" stroke="none"/>
        <path d="M 3.078464031219482 2.287884712219238 C 2.888084411621094 2.359453201293945 2.682656526565552 2.452426910400391 2.522693872451782 2.540055274963379 L 2.466883897781372 2.568625450134277 C 2.463023900985718 2.570455551147461 2.069483995437622 2.759515762329102 1.667413949966431 3.052536010742188 C 1.154046535491943 3.426654815673828 1.010838270187378 3.692441940307617 1.000003814697266 3.759154319763184 L 1.000003814697266 13.9677152633667 C 1.000003814697266 14.54074573516846 1.466203927993774 15.00694561004639 2.039233922958374 15.00694561004639 C 2.612263917922974 15.00694561004639 3.078464031219482 14.54074573516846 3.078464031219482 13.9677152633667 L 3.078464031219482 2.287884712219238 M 3.549774646759033 1.16413402557373 C 3.851938009262085 1.16413402557373 4.078464031219482 1.289226531982422 4.078464031219482 1.664685249328613 L 4.078464031219482 13.9677152633667 C 4.078464031219482 15.09395599365234 3.165473937988281 16.00694465637207 2.039233922958374 16.00694465637207 C 0.9129939079284668 16.00694465637207 3.814697265625e-06 15.09395599365234 3.814697265625e-06 13.9677152633667 L 3.814697265625e-06 3.755675315856934 C 3.814697265625e-06 2.629435539245605 2.039233922958374 1.664685249328613 2.039233922958374 1.664685249328613 C 2.039233922958374 1.664685249328613 2.945558309555054 1.16413402557373 3.549774646759033 1.16413402557373 Z" stroke="none" fill="#240046"/>
      </g>
      <g id="Caminho_419" data-name="Caminho 419" transform="translate(206.406 215.055)" fill="#240046">
        <path d="M 2.039233922958374 15.50976181030273 C 1.19050395488739 15.50976181030273 0.5000039339065552 14.819091796875 0.5000039339065552 13.97014236450195 L 0.5000039339065552 1.664782166481018 C 0.5084006190299988 1.664423823356628 0.5179377198219299 1.664132118225098 0.5286939144134521 1.664132118225098 C 0.8726839423179626 1.664132118225098 1.489703893661499 1.933102130889893 1.797833919525146 2.102642059326172 L 1.811203956604004 2.110002040863037 L 1.825373888015747 2.116742134094238 C 2.532114028930664 2.452832221984863 3.578464031219482 3.206512212753296 3.578464031219482 3.756162166595459 L 3.578464031219482 13.97014236450195 C 3.578464031219482 14.819091796875 2.887964010238647 15.50976181030273 2.039233922958374 15.50976181030273 Z" stroke="none"/>
        <path d="M 1.000003814697266 2.287981033325195 L 1.000003814697266 13.97014236450195 C 1.000003814697266 14.54339218139648 1.466203927993774 15.00976181030273 2.039233922958374 15.00976181030273 C 2.612263917922974 15.00976181030273 3.078464031219482 14.54339218139648 3.078464031219482 13.97014236450195 L 3.078464031219482 3.75956916809082 C 3.044036865234375 3.526872634887695 2.347742080688477 2.920690536499023 1.61151385307312 2.568692207336426 L 1.557224035263062 2.540942192077637 C 1.396503925323486 2.452896118164062 1.190603494644165 2.359671592712402 1.000003814697266 2.287981033325195 M 0.5286931991577148 1.164133071899414 C 1.132909536361694 1.164194107055664 2.039233922958374 1.664782524108887 2.039233922958374 1.664782524108887 C 2.039233922958374 1.664782524108887 4.078464031219482 2.629712104797363 4.078464031219482 3.756161689758301 L 4.078464031219482 13.97014236450195 C 4.078464031219482 15.09659194946289 3.165473937988281 16.00976181030273 2.039233922958374 16.00976181030273 C 0.9129939079284668 16.00976181030273 3.814697265625e-06 15.09659194946289 3.814697265625e-06 13.97014236450195 L 3.814697265625e-06 1.664782524108887 C 3.814697265625e-06 1.289249420166016 0.2265298366546631 1.164102554321289 0.5286931991577148 1.164133071899414 Z" stroke="none" fill="#240046"/>
      </g>
      <g id="Retângulo_722" data-name="Retângulo 722" transform="translate(192.865 212.263)" fill="#240046" stroke="#240046" stroke-width="1">
        <rect width="4.27" height="16.011" rx="2.135" stroke="none"/>
        <rect x="0.5" y="0.5" width="3.27" height="15.011" rx="1.635" fill="none"/>
      </g>
      <path id="Caminho_420" data-name="Caminho 420" d="M6629.614,264.573s-3.528,6.675-4.032,11.575a8.9,8.9,0,0,0,3.1,7.654,14.359,14.359,0,0,1,4.727,0,11.468,11.468,0,0,1,3.4,2.113" transform="translate(-6454.054 -24.838)" fill="none" stroke="#000" stroke-width="1"/>
      <path id="Caminho_422" data-name="Caminho 422" d="M6634.064,264.875s3.684,6.531,4.2,11.51a9.041,9.041,0,0,1-3.148,7.777,14.592,14.592,0,0,0-4.8,0,20.931,20.931,0,0,0-4.379,2.546" transform="translate(-6419.394 -25.063)" fill="none" stroke="#000" stroke-width="1"/>
      <g id="Caminho_421" data-name="Caminho 421" transform="translate(179.211 236.432)" fill="none">
        <path d="M15.717,3.129c7.859,0,15.717,4.28,15.717,12.632S24.4,30.884,15.717,30.884,0,24.113,0,15.761c0-3.55,1.492-2.323,6.18-3.869C17.3,7.253,11.2,3.129,15.717,3.129Z" stroke="none"/>
        <path d="M 15.71749210357666 4.128961563110352 C 14.94789123535156 4.128961563110352 14.79479217529297 4.270601272583008 14.7934627532959 4.272031784057617 C 14.71699142456055 4.354341506958008 14.64756202697754 4.74934196472168 14.59686279296875 5.037761688232422 C 14.28291130065918 6.823812484741211 13.7574520111084 9.813121795654297 6.565162658691406 12.81456184387207 L 6.529762268066406 12.82934188842773 L 6.493322372436523 12.84136199951172 C 5.03093147277832 13.32379150390625 3.843362808227539 13.55208206176758 2.976242065429688 13.71877288818359 C 2.165691375732422 13.87458229064941 1.525461196899414 13.99766159057617 1.292081832885742 14.20746231079102 C 1.098272323608398 14.3817024230957 1.000001907348633 14.90444183349609 1.000001907348633 15.76116180419922 C 1.000001907348633 19.52614212036133 2.526002883911133 23.06784057617188 5.296882629394531 25.73386192321777 C 8.078271865844727 28.40998268127441 11.779052734375 29.88379287719727 15.71749210357666 29.88379287719727 C 19.65593338012695 29.88379287719727 23.35671234130859 28.40998268127441 26.13810157775879 25.73386192321777 C 28.90898132324219 23.06784057617188 30.43498229980469 19.52614212036133 30.43498229980469 15.76116180419922 C 30.43498229980469 11.28864288330078 27.99079132080078 8.596481323242188 25.94038200378418 7.125621795654297 C 24.59156227111816 6.158042907714844 23.00049209594727 5.405542373657227 21.21137237548828 4.889001846313477 C 19.46453094482422 4.384681701660156 17.61612319946289 4.128961563110352 15.71749210357666 4.128961563110352 M 15.71749210357666 3.128961563110352 C 23.57623291015625 3.128961563110352 31.43498229980469 7.409172058105469 31.43498229980469 15.76116180419922 C 31.43498229980469 24.11316299438477 24.39802169799805 30.88379287719727 15.71749210357666 30.88379287719727 C 7.036962509155273 30.88379287719727 1.9073486328125e-06 24.11316299438477 1.9073486328125e-06 15.76116180419922 C 1.9073486328125e-06 12.21156120300293 1.492502212524414 13.43807220458984 6.180042266845703 11.89170265197754 C 17.29643249511719 7.25267219543457 11.19871139526367 3.128961563110352 15.71749210357666 3.128961563110352 Z" stroke="none" fill="#000"/>
      </g>
      <g id="Retângulo_723" data-name="Retângulo 723" transform="translate(170.45 233.61)" fill="none" stroke="#240046" stroke-width="1">
        <rect width="49.1" height="6.404" rx="3.202" stroke="none"/>
        <rect x="0.5" y="0.5" width="48.1" height="5.404" rx="2.702" fill="none"/>
      </g>
      <g id="Grupo_565" data-name="Grupo 565" transform="translate(0 5.445)">
        <g id="Caminho_423" data-name="Caminho 423" transform="translate(182.273 262.865)" fill="none">
          <path d="M14.067,0A18.527,18.527,0,0,1,32.594,18.527l8,32.253H-13.182L-4.46,18.527A18.527,18.527,0,0,1,14.067,0Z" stroke="none"/>
          <path d="M 14.0670108795166 0.9999961853027344 C 9.38545036315918 0.9999961853027344 4.984090805053711 2.823097229003906 1.673721313476562 6.133464813232422 C -1.636648178100586 9.443836212158203 -3.459749221801758 13.84519577026367 -3.459749221801758 18.52675628662109 L -3.459749221801758 18.65958404541016 L -11.87529373168945 49.77964401245117 L 39.31585693359375 49.77964401245117 L 31.59377098083496 18.6489372253418 L 31.59377098083496 18.52675628662109 C 31.59377098083496 13.84518432617188 29.77067184448242 9.443836212158203 26.46030044555664 6.133464813232422 C 23.14993095397949 2.823097229003906 18.74858093261719 0.9999961853027344 14.0670108795166 0.9999961853027344 M 14.0670108795166 -3.814697265625e-06 C 24.2990608215332 -3.814697265625e-06 32.59377288818359 8.294715881347656 32.59377288818359 18.52675628662109 L 40.59422302246094 50.77964401245117 L -13.181640625 50.77964401245117 L -4.459749221801758 18.52675628662109 C -4.459749221801758 8.294715881347656 3.834970474243164 -3.814697265625e-06 14.0670108795166 -3.814697265625e-06 Z" stroke="none" fill="#000"/>
        </g>
        <path id="Caminho_424" data-name="Caminho 424" d="M6652.154,281.4s-15.076,10.741-18.712,19.165,1.854,10.784,5.841,11.233a5.1,5.1,0,0,0,5.357-2.938" transform="translate(-6471.319 -9.489)" fill="none" stroke="#000" stroke-width="1"/>
        <path id="Caminho_425" data-name="Caminho 425" d="M6632.252,281.4s15.079,10.742,18.716,19.167-1.853,10.785-5.842,11.234a5.9,5.9,0,0,1-5.75-2.654" transform="translate(-6420.576 -9.489)" fill="none" stroke="#000" stroke-width="1"/>
        <g id="Caminho_426" data-name="Caminho 426" transform="translate(158.418 254.632)" fill="#f5e8ff">
          <path d="M 6.923444747924805 66.74601745605469 L 0.5201807618141174 66.74601745605469 L 1.836459875106812 33.48714828491211 L 1.837249875068665 33.46728897094727 L 1.836449861526489 33.44741821289062 L 0.5203696489334106 0.4999987185001373 L 6.922554969787598 0.4999987185001373 C 6.644087314605713 3.522861957550049 5.336289882659912 18.52035522460938 5.336289882659912 33.46738052368164 C 5.336289882659912 48.43126678466797 6.647052764892578 63.69493103027344 6.923444747924805 66.74601745605469 Z" stroke="none"/>
          <path d="M 1.040739059448242 1 L 2.337639808654785 33.46719741821289 L 1.040361881256104 66.24601745605469 L 6.376792907714844 66.24601745605469 C 6.021173000335693 62.21321105957031 4.836289882659912 47.70495223999023 4.836289882659912 33.46738052368164 C 4.836289882659912 19.25345993041992 6.01722526550293 4.9940185546875 6.375111103057861 1 L 1.040739059448242 1 M 0 0 L 7.471779823303223 0 C 7.471779823303223 0 5.836289882659912 16.65586853027344 5.836289882659912 33.46738052368164 C 5.836289882659912 50.27887725830078 7.471779823303223 67.24601745605469 7.471779823303223 67.24601745605469 L 0 67.24601745605469 L 1.336849689483643 33.46738052368164 L 0 0 Z" stroke="none" fill="#000"/>
        </g>
        <line id="Linha_151" data-name="Linha 151" x2="3.202" transform="translate(159.433 260.201)" fill="none" stroke="#000" stroke-width="1"/>
        <line id="Linha_152" data-name="Linha 152" x1="3.202" transform="translate(162.154 316.773)" fill="none" stroke="#000" stroke-width="1"/>
        <g id="Retângulo_724" data-name="Retângulo 724" transform="translate(183.449 313.037)" fill="none" stroke="#000" stroke-width="1">
          <path d="M0,0H11.741a0,0,0,0,1,0,0V22.949A5.871,5.871,0,0,1,5.871,28.82h0A5.871,5.871,0,0,1,0,22.949V0A0,0,0,0,1,0,0Z" stroke="none"/>
          <path d="M.5.5H11.241a0,0,0,0,1,0,0V22.949A5.371,5.371,0,0,1,5.871,28.32h0A5.371,5.371,0,0,1,.5,22.949V.5A0,0,0,0,1,.5.5Z" fill="none"/>
        </g>
        <g id="Retângulo_725" data-name="Retângulo 725" transform="translate(198.393 313.037)" fill="none" stroke="#000" stroke-width="1">
          <path d="M0,0H11.741a0,0,0,0,1,0,0V22.949A5.871,5.871,0,0,1,5.871,28.82h0A5.871,5.871,0,0,1,0,22.949V0A0,0,0,0,1,0,0Z" stroke="none"/>
          <path d="M.5.5H11.241a0,0,0,0,1,0,0V22.949A5.371,5.371,0,0,1,5.871,28.32h0A5.371,5.371,0,0,1,.5,22.949V.5A0,0,0,0,1,.5.5Z" fill="none"/>
        </g>
      </g>
    </g>
    <g id="Retângulo_727" data-name="Retângulo 727" transform="translate(100 195)" fill="none" stroke="#161615" stroke-linecap="round" stroke-width="1" stroke-dasharray="50 25">
      <rect width="190" height="338" rx="15" stroke="none"/>
      <rect x="0.5" y="0.5" width="189" height="337" rx="14.5" fill="none"/>
    </g>
  </g>
</svg>
